<svg xmlns="http://www.w3.org/2000/svg" xmlns:xlink="http://www.w3.org/1999/xlink" width="55.17" height="38.403" viewBox="0 0 55.17 38.403">
  <defs>
    <clipPath id="clip-path">
      <rect id="Rectangle_3205" data-name="Rectangle 3205" width="55.17" height="38.403" transform="translate(0 0)" fill="none" stroke="#1d3b35" stroke-width="1.3"/>
    </clipPath>
  </defs>
  <g id="Group_1655" data-name="Group 1655" transform="translate(0 -26.43)">
    <g id="Group_1654" data-name="Group 1654" transform="translate(0 26.43)" clip-path="url(#clip-path)">
      <path id="Path_28277" data-name="Path 28277" d="M85.314,20.807l-4.389,1.608a1.419,1.419,0,0,1-1.815-.842l-6.191-16.9a1.42,1.42,0,0,1,.842-1.816l4.389-1.608a1.419,1.419,0,0,1,1.815.842l6.191,16.9A1.419,1.419,0,0,1,85.314,20.807Z" transform="translate(-31.712 -0.508)" fill="none" stroke="#1d3b35" stroke-linecap="round" stroke-linejoin="round" stroke-width="1.3"/>
      <path id="Path_28278" data-name="Path 28278" d="M6.519,22.43l-4.426-1.5a1.419,1.419,0,0,1-.885-1.795L6.995,2.093A1.419,1.419,0,0,1,8.79,1.208l4.426,1.5A1.419,1.419,0,0,1,14.1,4.506L8.314,21.546A1.42,1.42,0,0,1,6.519,22.43Z" transform="translate(-0.494 -0.493)" fill="none" stroke="#1d3b35" stroke-linecap="round" stroke-linejoin="round" stroke-width="1.3"/>
      <path id="Path_28279" data-name="Path 28279" d="M23.932,7.077c5.375,1.069,7.99-2.488,12.41.632" transform="translate(-10.42 -2.784)" fill="none" stroke="#1d3b35" stroke-linecap="round" stroke-linejoin="round" stroke-width="1.3"/>
      <path id="Path_28280" data-name="Path 28280" d="M56.492,8.053c-2.5.812-3.935.126-5.87-.842A9.066,9.066,0,0,0,40.1,9.084c-3.9,3.932-5.961,6.273-5.961,6.273a5.689,5.689,0,0,0,4.276,2.5c2.653,0,6.148-2.434,8.3-2.153s7.054,3.184,7.054,3.184,3.464,1.935,5.118,3a3.36,3.36,0,0,1,.937,4.307c-.665,1.069-1.837,1.783-4.256.432-3.007-1.677-8.151-4.381-8.151-4.381" transform="translate(-14.866 -2.742)" fill="none" stroke="#1d3b35" stroke-linecap="round" stroke-linejoin="round" stroke-width="1.3"/>
      <path id="Path_28281" data-name="Path 28281" d="M52.158,42.41,58.577,46c2.9,1.5,4.4.278,4.968-1.064a2.709,2.709,0,0,0-.925-3.427" transform="translate(-22.71 -18.074)" fill="none" stroke="#1d3b35" stroke-linecap="round" stroke-linejoin="round" stroke-width="1.3"/>
      <path id="Path_28282" data-name="Path 28282" d="M46.409,50.342l5.9,3.009a2.939,2.939,0,0,0,3.98-2.1,2.891,2.891,0,0,0-1.038-2.608" transform="translate(-20.207 -21.181)" fill="none" stroke="#1d3b35" stroke-linecap="round" stroke-linejoin="round" stroke-width="1.3"/>
      <line id="Line_264" data-name="Line 264" y1="0.678" x2="1.812" transform="translate(45.129 19.818)" fill="none" stroke="#1d3b35" stroke-linecap="round" stroke-linejoin="round" stroke-width="1.3"/>
      <path id="Path_28283" data-name="Path 28283" d="M15.369,44.092h0A2.809,2.809,0,0,1,14.223,40.3l1.51-2.818a2.8,2.8,0,0,1,4.939,2.646l-1.51,2.818A2.809,2.809,0,0,1,15.369,44.092Z" transform="translate(-6.049 -15.676)" fill="none" stroke="#1d3b35" stroke-linecap="round" stroke-linejoin="round" stroke-width="1.3"/>
      <path id="Path_28284" data-name="Path 28284" d="M22.484,51.605h0a2.809,2.809,0,0,1-1.146-3.792l2.253-4.2a2.8,2.8,0,0,1,4.939,2.646l-2.253,4.2A2.809,2.809,0,0,1,22.484,51.605Z" transform="translate(-9.147 -18.344)" fill="none" stroke="#1d3b35" stroke-linecap="round" stroke-linejoin="round" stroke-width="1.3"/>
      <path id="Rectangle_3204" data-name="Rectangle 3204" d="M2.8,0H6.029a2.8,2.8,0,0,1,2.8,2.8v0a2.8,2.8,0,0,1-2.8,2.8H2.8A2.8,2.8,0,0,1,0,2.8v0A2.8,2.8,0,0,1,2.8,0Z" transform="translate(16.274 33.74) rotate(-61.811)" fill="none" stroke="#1d3b35" stroke-linecap="round" stroke-linejoin="round" stroke-width="1.3"/>
      <path id="Path_28285" data-name="Path 28285" d="M40.986,61.215l-.514-.276a2.281,2.281,0,0,1-.93-3.079l1.292-2.411a2.281,2.281,0,0,1,3.079-.93l.514.275a2.281,2.281,0,0,1,.93,3.079l-1.292,2.412A2.281,2.281,0,0,1,40.986,61.215Z" transform="translate(-17.1 -23.62)" fill="none" stroke="#1d3b35" stroke-linecap="round" stroke-linejoin="round" stroke-width="1.3"/>
      <path id="Path_28286" data-name="Path 28286" d="M51.654,55.364c1.787.912,2.451,2.92,1.618,4.177-.718,1.083-2.016.927-4.255-.095" transform="translate(-21.342 -24.105)" fill="none" stroke="#1d3b35" stroke-linecap="round" stroke-linejoin="round" stroke-width="1.3"/>
      <line id="Line_265" data-name="Line 265" x2="1.506" y2="1.421" transform="translate(7.82 21.052)" fill="none" stroke="#1d3b35" stroke-linecap="round" stroke-linejoin="round" stroke-width="1.3"/>
    </g>
  </g>
</svg>
