<svg xmlns="http://www.w3.org/2000/svg" xmlns:xlink="http://www.w3.org/1999/xlink" width="142.519" height="33.608" viewBox="0 0 142.519 33.608">
  <defs>
    <clipPath id="clip-path">
      <rect id="Rectangle_49" data-name="Rectangle 49" width="142.519" height="33.608" fill="#1D2249"/>
    </clipPath>
  </defs>
  <g id="Group_16" data-name="Group 16" transform="translate(0 0)">
    <g id="Group_15" data-name="Group 15" transform="translate(0 0)" clip-path="url(#clip-path)">
      <path id="Path_25" data-name="Path 25" d="M9.176,14.711l-2.6-.668Q3.8,13.41,3.8,11.933a1.822,1.822,0,0,1,1-1.546,4.152,4.152,0,0,1,2.268-.634,5.015,5.015,0,0,1,2.479.616,3.635,3.635,0,0,1,1.6,1.7l2.882-1.195a5.922,5.922,0,0,0-2.583-2.918A7.978,7.978,0,0,0,7.312,6.87a8.01,8.01,0,0,0-4.9,1.424A4.481,4.481,0,0,0,.493,12.074q0,3.587,5.026,4.851l2.954.738Q11,18.438,11,20.09a1.894,1.894,0,0,1-1.037,1.582,4.673,4.673,0,0,1-2.583.668,4.486,4.486,0,0,1-2.655-.862A5.352,5.352,0,0,1,2.882,19.07L0,20.3a7.46,7.46,0,0,0,2.813,3.568,7.867,7.867,0,0,0,4.57,1.354,7.781,7.781,0,0,0,4.956-1.546,4.671,4.671,0,0,0,1.969-3.8q0-3.9-5.132-5.168" transform="translate(0 0.793)" fill="#1D2249"/>
      <path id="Path_26" data-name="Path 26" d="M24.27,6.871a8.511,8.511,0,0,0-6.364,2.6,9.115,9.115,0,0,0-2.5,6.575,9.112,9.112,0,0,0,2.5,6.575,8.507,8.507,0,0,0,6.364,2.6,8.4,8.4,0,0,0,6.328-2.6,8.973,8.973,0,0,0,2.531-6.575A9.05,9.05,0,0,0,30.6,9.472a8.4,8.4,0,0,0-6.328-2.6" transform="translate(1.78 0.793)" fill="#1D2249"/>
      <path id="Path_27" data-name="Path 27" d="M54.349,6.871a6.721,6.721,0,0,0-5.941,3.305A5.18,5.18,0,0,0,46.3,7.751a6.327,6.327,0,0,0-6.381-.036A5.736,5.736,0,0,0,37.65,9.825h-.141V7.434H34.415V24.66H37.65V15.133a5.789,5.789,0,0,1,1.265-3.727,3.866,3.866,0,0,1,3.129-1.582A3.619,3.619,0,0,1,45,10.9a5.539,5.539,0,0,1,.878,3.5V24.66H49.11V15.133a5.784,5.784,0,0,1,1.266-3.727,3.863,3.863,0,0,1,3.129-1.582A3.617,3.617,0,0,1,56.458,10.9a5.531,5.531,0,0,1,.879,3.5V24.66h3.234V13.9a7.605,7.605,0,0,0-1.616-5.2,5.828,5.828,0,0,0-4.606-1.828" transform="translate(3.974 0.793)" fill="#1D2249"/>
      <path id="Path_28" data-name="Path 28" d="M70.738,6.871a6.489,6.489,0,0,0-3.181.844,5.751,5.751,0,0,0-2.268,2.109h-.141V7.434H62.055V24.66h3.234V15.133a5.671,5.671,0,0,1,1.3-3.745,4.043,4.043,0,0,1,3.235-1.564q4.148,0,4.253,4.219V24.66h3.235V13.832a7.228,7.228,0,0,0-1.706-5.15,6.37,6.37,0,0,0-4.869-1.81" transform="translate(7.166 0.793)" fill="#1D2249"/>
      <path id="Path_29" data-name="Path 29" d="M81.862,0a2.2,2.2,0,0,0-1.617.668,2.2,2.2,0,0,0-.667,1.617A2.205,2.205,0,0,0,80.244,3.9a2.292,2.292,0,0,0,3.235,0,2.206,2.206,0,0,0,.668-1.617A2.2,2.2,0,0,0,83.479.668,2.2,2.2,0,0,0,81.862,0" transform="translate(9.189 0)" fill="#1D2249"/>
      <rect id="Rectangle_47" data-name="Rectangle 47" width="3.235" height="17.226" transform="translate(89.435 8.226)" fill="#1D2249"/>
      <rect id="Rectangle_48" data-name="Rectangle 48" width="3.235" height="25.171" transform="translate(97.766 0.281)" fill="#1D2249"/>
      <path id="Path_30" data-name="Path 30" d="M102.681,6.871a8.514,8.514,0,0,0-6.363,2.6,9.119,9.119,0,0,0-2.5,6.576,9.112,9.112,0,0,0,2.5,6.574,8.506,8.506,0,0,0,6.363,2.6,8.394,8.394,0,0,0,6.328-2.6,8.968,8.968,0,0,0,2.531-6.574,9.048,9.048,0,0,0-2.531-6.576,8.4,8.4,0,0,0-6.328-2.6m4.008,13.675a5.524,5.524,0,0,1-8.016,0,6.306,6.306,0,0,1-1.616-4.5,6.266,6.266,0,0,1,1.616-4.466,5.45,5.45,0,0,1,8.016,0,6.266,6.266,0,0,1,1.616,4.466,6.306,6.306,0,0,1-1.616,4.5" transform="translate(10.834 0.793)" fill="#1D2249"/>
      <path id="Path_31" data-name="Path 31" d="M126.461,7.433v2.39h-.141a6.364,6.364,0,0,0-2.479-2.162,7.408,7.408,0,0,0-3.392-.791,7.573,7.573,0,0,0-5.8,2.672,9.4,9.4,0,0,0-2.392,6.5,9.529,9.529,0,0,0,2.392,6.538,7.609,7.609,0,0,0,5.8,2.637,7.408,7.408,0,0,0,3.392-.791,6.367,6.367,0,0,0,2.479-2.163h.141v1.653a6.137,6.137,0,0,1-1.477,4.359,5.346,5.346,0,0,1-4.113,1.582,5.13,5.13,0,0,1-3.024-.914,4.849,4.849,0,0,1-1.827-2.426l-3.059,1.266a6.685,6.685,0,0,0,1.124,2.039,7.478,7.478,0,0,0,1.776,1.582,8.8,8.8,0,0,0,2.3,1.037,9.653,9.653,0,0,0,2.707.368,8.558,8.558,0,0,0,6.328-2.389,8.8,8.8,0,0,0,2.356-6.5V7.433ZM124.88,20.546a4.952,4.952,0,0,1-3.9,1.722,5.043,5.043,0,0,1-3.9-1.757,6.341,6.341,0,0,1-1.582-4.464,6.429,6.429,0,0,1,1.582-4.466,5.047,5.047,0,0,1,3.9-1.757,4.978,4.978,0,0,1,3.9,1.757,6.429,6.429,0,0,1,1.582,4.466,6.389,6.389,0,0,1-1.582,4.5" transform="translate(12.963 0.793)" fill="#1D2249"/>
    </g>
  </g>
</svg>
