<?xml version="1.0" encoding="UTF-8"?>
<svg width="700pt" height="700pt" version="1.1" viewBox="0 0 700 700" xmlns="http://www.w3.org/2000/svg" xmlns:xlink="http://www.w3.org/1999/xlink">
 <defs>
  <symbol id="n" overflow="visible">
   <!-- <path d="m29.312-1.75c-1.5117 0.78125-3.0898 1.3711-4.7344 1.7656-1.6367 0.40625-3.3398 0.60938-5.1094 0.60938-5.3125 0-9.5273-1.4844-12.641-4.4531-3.1055-2.9688-4.6562-7-4.6562-12.094s1.5508-9.125 4.6562-12.094c3.1133-2.9688 7.3281-4.4531 12.641-4.4531 1.7695 0 3.4727 0.19922 5.1094 0.59375 1.6445 0.39844 3.2227 0.99219 4.7344 1.7812v6.5938c-1.5312-1.0391-3.0391-1.8008-4.5156-2.2812-1.4805-0.48828-3.0391-0.73438-4.6719-0.73438-2.9375 0-5.2461 0.94531-6.9219 2.8281-1.6797 1.875-2.5156 4.4648-2.5156 7.7656 0 3.293 0.83594 5.8828 2.5156 7.7656 1.6758 1.875 3.9844 2.8125 6.9219 2.8125 1.6328 0 3.1914-0.23828 4.6719-0.71875 1.4766-0.48828 2.9844-1.2539 4.5156-2.2969z"/> -->
  </symbol>
  <symbol id="b" overflow="visible">
   <!-- <path d="m21.453-17.406c-0.67969-0.3125-1.3516-0.53906-2.0156-0.6875-0.65625-0.15625-1.3203-0.23438-1.9844-0.23438-1.9688 0-3.4844 0.63281-4.5469 1.8906-1.0547 1.2617-1.5781 3.0703-1.5781 5.4219v11.016h-7.6562v-23.922h7.6562v3.9219c0.97656-1.5625 2.1016-2.7031 3.375-3.4219 1.2812-0.71875 2.8125-1.0781 4.5938-1.0781 0.25 0 0.52344 0.011719 0.82812 0.03125 0.30078 0.023438 0.73438 0.070312 1.2969 0.14062z"/> -->
  </symbol>
  <symbol id="c" overflow="visible">
   <!-- <path d="m27.562-12.031v2.1875h-17.891c0.1875 1.793 0.83203 3.1367 1.9375 4.0312 1.1133 0.89844 2.6719 1.3438 4.6719 1.3438 1.6016 0 3.25-0.23438 4.9375-0.70312 1.6875-0.47656 3.4219-1.2031 5.2031-2.1719v5.8906c-1.8047 0.6875-3.6094 1.2031-5.4219 1.5469-1.8125 0.35156-3.6211 0.53125-5.4219 0.53125-4.3359 0-7.7031-1.0977-10.109-3.2969-2.3984-2.207-3.5938-5.2969-3.5938-9.2656 0-3.9062 1.1758-6.9727 3.5312-9.2031 2.3633-2.2383 5.6094-3.3594 9.7344-3.3594 3.7578 0 6.7695 1.1367 9.0312 3.4062 2.2578 2.2617 3.3906 5.2812 3.3906 9.0625zm-7.8594-2.5312c0-1.457-0.42969-2.6289-1.2812-3.5156-0.84375-0.89453-1.9492-1.3438-3.3125-1.3438-1.4922 0-2.6992 0.41797-3.625 1.25-0.91797 0.83594-1.4922 2.0391-1.7188 3.6094z"/> -->
  </symbol>
  <symbol id="a" overflow="visible">
   <!-- <path d="m14.391-10.766c-1.5938 0-2.793 0.27344-3.5938 0.8125-0.80469 0.54297-1.2031 1.3398-1.2031 2.3906 0 0.96875 0.32031 1.7305 0.96875 2.2812 0.64453 0.54297 1.5469 0.8125 2.7031 0.8125 1.4375 0 2.6445-0.51562 3.625-1.5469 0.98828-1.0312 1.4844-2.3203 1.4844-3.875v-0.875zm11.688-2.8906v13.656h-7.7031v-3.5469c-1.0312 1.4492-2.1875 2.5078-3.4688 3.1719s-2.8398 1-4.6719 1c-2.4805 0-4.4961-0.72266-6.0469-2.1719-1.543-1.4453-2.3125-3.3203-2.3125-5.625 0-2.8125 0.96094-4.8672 2.8906-6.1719 1.9375-1.3125 4.9688-1.9688 9.0938-1.9688h4.5156v-0.60938c0-1.207-0.48047-2.0938-1.4375-2.6562-0.94922-0.5625-2.4375-0.84375-4.4688-0.84375-1.6367 0-3.1562 0.16797-4.5625 0.5-1.4062 0.32422-2.7188 0.8125-3.9375 1.4688v-5.8281c1.6445-0.40625 3.2891-0.70703 4.9375-0.90625 1.6562-0.20703 3.3047-0.3125 4.9531-0.3125 4.3203 0 7.4375 0.85547 9.3438 2.5625 1.9141 1.6992 2.875 4.4609 2.875 8.2812z"/> -->
  </symbol>
  <symbol id="h" overflow="visible">
   <!-- <path d="m12.031-30.719v6.7969h7.875v5.4688h-7.875v10.141c0 1.1172 0.21875 1.8711 0.65625 2.2656 0.4375 0.38672 1.3125 0.57812 2.625 0.57812h3.9375v5.4688h-6.5625c-3.0234 0-5.1641-0.62891-6.4219-1.8906-1.2617-1.2578-1.8906-3.3984-1.8906-6.4219v-10.141h-3.7969v-5.4688h3.7969v-6.7969z"/> -->
  </symbol>
  <symbol id="g" overflow="visible">
   <!-- <path d="m19.953-20.422v-12.812h7.6875v33.234h-7.6875v-3.4531c-1.0547 1.4062-2.2148 2.4375-3.4844 3.0938-1.2734 0.65625-2.7422 0.98438-4.4062 0.98438-2.9492 0-5.3711-1.1719-7.2656-3.5156-1.8867-2.3438-2.8281-5.3594-2.8281-9.0469s0.94141-6.7031 2.8281-9.0469c1.8945-2.3438 4.3164-3.5156 7.2656-3.5156 1.6562 0 3.1172 0.33594 4.3906 1 1.2812 0.65625 2.4453 1.6836 3.5 3.0781zm-5.0469 15.484c1.6445 0 2.8945-0.59766 3.75-1.7969 0.86328-1.1953 1.2969-2.9297 1.2969-5.2031 0-2.2812-0.43359-4.0195-1.2969-5.2188-0.85547-1.1953-2.1055-1.7969-3.75-1.7969-1.625 0-2.8711 0.60156-3.7344 1.7969-0.85547 1.1992-1.2812 2.9375-1.2812 5.2188 0 2.2734 0.42578 4.0078 1.2812 5.2031 0.86328 1.1992 2.1094 1.7969 3.7344 1.7969z"/> -->
  </symbol>
  <symbol id="f" overflow="visible">
   <!-- <path d="m16.406-4.9375c1.6328 0 2.8828-0.59766 3.75-1.7969 0.86328-1.1953 1.2969-2.9297 1.2969-5.2031 0-2.2812-0.43359-4.0195-1.2969-5.2188-0.86719-1.1953-2.1172-1.7969-3.75-1.7969-1.6367 0-2.8906 0.60547-3.7656 1.8125-0.875 1.1992-1.3125 2.9336-1.3125 5.2031 0 2.2617 0.4375 3.9961 1.3125 5.2031 0.875 1.1992 2.1289 1.7969 3.7656 1.7969zm-5.0781-15.484c1.0508-1.3945 2.2188-2.4219 3.5-3.0781 1.2812-0.66406 2.7539-1 4.4219-1 2.9453 0 5.3672 1.1719 7.2656 3.5156 1.8945 2.3438 2.8438 5.3594 2.8438 9.0469s-0.94922 6.7031-2.8438 9.0469c-1.8984 2.3438-4.3203 3.5156-7.2656 3.5156-1.668 0-3.1406-0.33594-4.4219-1s-2.4492-1.6914-3.5-3.0781v3.4531h-7.6562v-33.234h7.6562z"/> -->
  </symbol>
  <symbol id="e" overflow="visible">
   <!-- <path d="m0.53125-23.922h7.6562l6.4219 16.234 5.4688-16.234h7.6562l-10.062 26.188c-1.0117 2.6641-2.1953 4.5234-3.5469 5.5781-1.3438 1.0625-3.1211 1.5938-5.3281 1.5938h-4.4219v-5.0156h2.3906c1.3008 0 2.2422-0.21094 2.8281-0.625 0.59375-0.40625 1.0547-1.1484 1.3906-2.2188l0.20312-0.65625z"/> -->
  </symbol>
  <symbol id="d" overflow="visible">
   <!-- <path d="m19.953-4.0625c-1.0547 1.3984-2.2148 2.4219-3.4844 3.0781-1.2734 0.65625-2.7422 0.98438-4.4062 0.98438-2.918 0-5.3281-1.1484-7.2344-3.4531-1.9062-2.3008-2.8594-5.2266-2.8594-8.7812 0-3.582 0.95312-6.5156 2.8594-8.7969s4.3164-3.4219 7.2344-3.4219c1.6641 0 3.1328 0.32812 4.4062 0.98438 1.2695 0.64844 2.4297 1.6797 3.4844 3.0938v-3.5469h7.6875v21.516c0 3.8438-1.2148 6.7734-3.6406 8.7969-2.4297 2.0312-5.9492 3.0469-10.562 3.0469-1.5 0-2.9492-0.11719-4.3438-0.34375-1.3984-0.21875-2.7969-0.57031-4.2031-1.0469v-5.9531c1.3438 0.76953 2.6562 1.3438 3.9375 1.7188s2.5664 0.5625 3.8594 0.5625c2.5078 0 4.3477-0.54688 5.5156-1.6406 1.1641-1.0938 1.75-2.8047 1.75-5.1406zm-5.0469-14.891c-1.5742 0-2.8047 0.58984-3.6875 1.7656-0.88672 1.168-1.3281 2.8203-1.3281 4.9531 0 2.1875 0.42578 3.8516 1.2812 4.9844 0.85156 1.1367 2.0977 1.7031 3.7344 1.7031 1.5938 0 2.832-0.58203 3.7188-1.75 0.88281-1.1758 1.3281-2.8203 1.3281-4.9375 0-2.1328-0.44531-3.7852-1.3281-4.9531-0.88672-1.1758-2.125-1.7656-3.7188-1.7656z"/> -->
  </symbol>
  <symbol id="m" overflow="visible">
   <!-- <path d="m3.4219-9.3125v-14.609h7.6875v2.3906c0 1.293-0.011719 2.918-0.03125 4.875-0.011719 1.9609-0.015625 3.2656-0.015625 3.9219 0 1.9297 0.046875 3.3125 0.14062 4.1562 0.10156 0.84375 0.28125 1.4609 0.53125 1.8438 0.3125 0.5 0.71875 0.88672 1.2188 1.1562 0.50781 0.27344 1.0938 0.40625 1.75 0.40625 1.5938 0 2.8438-0.60938 3.75-1.8281 0.91406-1.2266 1.375-2.9297 1.375-5.1094v-11.812h7.6406v23.922h-7.6406v-3.4531c-1.1562 1.3867-2.3828 2.4141-3.6719 3.0781-1.2812 0.66406-2.6992 1-4.25 1-2.7734 0-4.8828-0.84766-6.3281-2.5469-1.4375-1.6953-2.1562-4.1602-2.1562-7.3906z"/> -->
  </symbol>
  <symbol id="l" overflow="visible">
   <!-- <path d="m22.359-23.172v5.7969c-1.6367-0.67578-3.2148-1.1875-4.7344-1.5312-1.5234-0.34375-2.9609-0.51562-4.3125-0.51562-1.4609 0-2.543 0.18359-3.25 0.54688-0.69922 0.36719-1.0469 0.92188-1.0469 1.6719 0 0.61719 0.26562 1.0898 0.79688 1.4219 0.53125 0.32422 1.4883 0.5625 2.875 0.71875l1.3438 0.1875c3.9141 0.5 6.5508 1.3242 7.9062 2.4688 1.3516 1.1367 2.0312 2.9219 2.0312 5.3594 0 2.5547-0.94531 4.4688-2.8281 5.75-1.875 1.2812-4.6797 1.9219-8.4062 1.9219-1.5859 0-3.2188-0.125-4.9062-0.375s-3.4219-0.625-5.2031-1.125v-5.8125c1.5195 0.74219 3.082 1.2969 4.6875 1.6719 1.6016 0.36719 3.2344 0.54688 4.8906 0.54688 1.4883 0 2.6094-0.20312 3.3594-0.60938 0.75781-0.41406 1.1406-1.0312 1.1406-1.8438 0-0.6875-0.26172-1.1953-0.78125-1.5312-0.52344-0.33203-1.5586-0.59375-3.1094-0.78125l-1.3438-0.17188c-3.4062-0.42578-5.793-1.2109-7.1562-2.3594-1.3672-1.1562-2.0469-2.9102-2.0469-5.2656 0-2.5312 0.86719-4.4062 2.6094-5.625 1.7383-1.2266 4.3984-1.8438 7.9844-1.8438 1.4062 0 2.8828 0.10938 4.4375 0.32812 1.5508 0.21094 3.2383 0.54297 5.0625 1z"/> -->
  </symbol>
  <symbol id="k" overflow="visible">
   <!-- <path d="m27.734-14.562v14.562h-7.7031v-11.109c0-2.0938-0.046875-3.5312-0.14062-4.3125-0.085937-0.78125-0.24219-1.3594-0.46875-1.7344-0.30469-0.5-0.71094-0.88281-1.2188-1.1562-0.51172-0.28125-1.0938-0.42188-1.75-0.42188-1.5938 0-2.8516 0.61719-3.7656 1.8438-0.90625 1.2305-1.3594 2.9375-1.3594 5.125v11.766h-7.6562v-33.234h7.6562v12.812c1.1445-1.3945 2.3633-2.4219 3.6562-3.0781 1.3008-0.66406 2.7383-1 4.3125-1 2.7578 0 4.8516 0.85156 6.2812 2.5469 1.4375 1.6875 2.1562 4.1523 2.1562 7.3906z"/> -->
  </symbol>
  <symbol id="j" overflow="visible">
   <!-- <path d="m3.6719-23.922h7.6562v23.5c0 3.1953-0.77344 5.6406-2.3125 7.3281-1.543 1.6875-3.7734 2.5312-6.6875 2.5312h-3.7812v-5.0156h1.3281c1.4453 0 2.4414-0.32812 2.9844-0.98438 0.53906-0.65625 0.8125-1.9453 0.8125-3.8594zm0-9.3125h7.6562v6.2344h-7.6562z"/> -->
  </symbol>
  <symbol id="i" overflow="visible">
   <!-- <path d="m15.062-19.031c-1.6992 0-2.9961 0.60938-3.8906 1.8281-0.88672 1.2188-1.3281 2.9766-1.3281 5.2656 0 2.293 0.44141 4.0469 1.3281 5.2656 0.89453 1.2188 2.1914 1.8281 3.8906 1.8281 1.6641 0 2.9375-0.60938 3.8125-1.8281 0.88281-1.2188 1.3281-2.9727 1.3281-5.2656 0-2.2891-0.44531-4.0469-1.3281-5.2656-0.875-1.2188-2.1484-1.8281-3.8125-1.8281zm0-5.4688c4.1133 0 7.3281 1.1094 9.6406 3.3281s3.4688 5.2969 3.4688 9.2344c0 3.9297-1.1562 7.0078-3.4688 9.2344-2.3125 2.2188-5.5273 3.3281-9.6406 3.3281-4.1367 0-7.3711-1.1094-9.7031-3.3281-2.3242-2.2266-3.4844-5.3047-3.4844-9.2344 0-3.9375 1.1602-7.0156 3.4844-9.2344 2.332-2.2188 5.5664-3.3281 9.7031-3.3281z"/> -->
  </symbol>
 </defs>
 <g>
  <path d="m349.96 50.312c-27.953-0.050781-55.695 4.7773-81.988 14.262 2.0117 5.4961 3.4492 11.184 4.2891 16.977 13.973-5.0781 28.422-8.7422 43.125-10.938l6.3945 13.922h0.003906c0.11719 0.26172 0.26953 0.50391 0.44922 0.72656l12.102 14.637c2.9688 3.5781 3.7852 8.4766 2.1445 12.828l-1.8203 4.8789c-2.3203 5.9883-2.1484 12.656 0.48828 18.516l9.2812 21.105h-0.003906c1.3398 2.9961 3.5195 5.543 6.2734 7.3281 2.7539 1.7891 5.9648 2.7422 9.2461 2.7461h4.9805c4.0234-0.046875 7.8984-1.5 10.961-4.1094s5.1133-6.207 5.7969-10.168l1.0664-30.137 15.832-8.4688h0.003906c1.0664-0.57422 1.7344-1.6875 1.7344-2.8984v-28.352c-0.003906-0.35156-0.058594-0.69922-0.17188-1.0352l-3.1211-9.3672c41.832 8.9258 80.277 29.531 110.88 59.426l-6.2891 3.9023c-4.7812 2.9961-7.6758 8.2461-7.668 13.887 0.015625 4.7266-3.4062 8.7617-8.0742 9.5195l-15.098 2.4766c-4.4609 0.73438-8.4688 3.1523-11.199 6.7539-2.7344 3.6055-3.9766 8.1172-3.4805 12.609l2.4688 22.184h-11.039c-3.5508-0.003907-6.957 1.3906-9.4883 3.8789l-17.508 17.211c-3.5586 3.5039-4.75 8.7617-3.043 13.457l7.1875 19.621v-0.003906c1.957 5.2969 7 8.8203 12.648 8.8359h15.477-0.003907c5.2695-0.007813 10.055-3.0859 12.246-7.875l11.023-24.148h2.7344l4.6055 7.8086c1.7188 3.0234 4.2422 5.5156 7.2891 7.1914 3.0508 1.6758 6.5039 2.4727 9.9805 2.3008 2.7734-0.089843 5.3281-1.5195 6.8516-3.8398 1.5273-2.3164 1.8281-5.2305 0.8125-7.8125l-8.2031-20.883v-0.003906c-0.375-0.96094-0.39453-2.0234-0.058594-2.9961l1.4766-4.3086c0.39062-1.1211 1.4453-1.8711 2.6328-1.8711h18.293c2.7344 0.003906 5.1719 1.7188 6.0938 4.2891l3.8984 10.871c1.9492 5.457 6.4883 9.582 12.105 11.004l15.809 4.0234 10.117 26.984v0.003907c0.93359 2.4609 0.14062 5.2461-1.9492 6.8516l-7.5195 5.8008c-1.2617 0.99609-2.875 1.4297-4.4688 1.207-1.5938-0.21484-3.0352-1.0625-3.9961-2.3516l-9.4531-12.57c-3.1602-4.2422-8.707-5.9453-13.707-4.2031l-17.363 5.9883c-2.4062 0.83203-4.9375 1.2539-7.4844 1.25h-13.285c-4.7266-0.011719-9.0508 2.6445-11.18 6.8594l-5.6211 11.047v0.003906c-2.7773 5.4219-7.582 9.5312-13.371 11.434l-11.887 3.8633v-0.003906c-4.375 1.4219-7.957 4.6016-9.8867 8.7773l-15.945 34.555c-2.1602 4.6562-1.8828 10.074 0.74219 14.484l21.113 35.469h0.003906c3.0977 5.1641 8.6719 8.332 14.695 8.3516h22.867c0.98047 0 1.9297 0.36719 2.6562 1.0234l6.2539 5.6406c1.1172 1.0039 1.5703 2.5508 1.1719 3.9961l-2.9727 10.836c-0.75391 2.8008-0.75 5.7539 0.007813 8.5547l2.8125 10.238v-0.003906c0.61328 2.2852 0.29297 4.7227-0.89062 6.7695l-19.32 33.309c-29 18.758-61.922 30.609-96.223 34.645-34.305 4.0312-69.074 0.13672-101.64-11.383l-2.1406-23.562 20.039-11.988h-0.003906c1.0742-0.62891 1.6875-1.8203 1.5781-3.0625l-1.0508-14.438 9.1016-16.449h-0.003906c2.2578-3.9922 2.707-8.7539 1.2344-13.094-1.4688-4.3438-4.7188-7.8555-8.9336-9.6562l-11.988-5.1641v0.003906c-2.625-1.1836-4.5586-3.5078-5.25-6.3008l-1.75-7c-1.4023-5.7539-6.3438-9.9531-12.25-10.414l-10.762-0.875c-3.0625-0.32031-5.3555-2.957-5.25-6.0352-0.050781-5.418-3.4219-10.246-8.4883-12.164l-41.738-15.312h0.003906c-3.5625-1.3164-6.6328-3.6914-8.8086-6.8047-2.1719-3.1094-3.3438-6.8125-3.3555-10.609v-23.535c0.007812-6.1523 2.0039-12.137 5.6875-17.062l8.9258-11.898 32.199-0.085938v-0.003906c3.4258 0.019531 6.7266 1.2969 9.2734 3.5859l4.4609 4.1992 0.003906 0.003906c2.8906 2.5469 6.6289 3.9219 10.48 3.8594 3.8516-0.066407 7.5391-1.5664 10.344-4.2109 2.8477-2.8398 4.4219-6.7109 4.375-10.73-0.050781-4.0195-1.7227-7.8516-4.6367-10.621l-3.2383-3.0625c-2.0312-1.8828-2.2617-5.0156-0.52344-7.1719l11.898-15.312c1.8945-2.5117 3.082-5.4844 3.4375-8.6094 0.35156-3.1211-0.13672-6.2852-1.4258-9.1562l-5.3359-11.727v0.003906c-1.2148-2.6602-0.45703-5.8008 1.8359-7.6133l17.062-13.824c3.6172-2.9414 5.6289-7.418 5.4258-12.074l-0.35156-4.8984v-0.003906c-0.21875-3.6055-1.9727-6.9414-4.8164-9.168-2.8438-2.2227-6.5039-3.1211-10.059-2.4688l-13.562 1.1367c-2.543 0.23438-4.957 1.2422-6.9102 2.8867l-15.312 13.039c-1.2227 1.0781-2.9453 1.3828-4.4648 0.78906l-5.6875-2.1016c-13.855 15.77-28.988 30.371-45.234 43.664-1.5273 1.2578-3.4492 1.9414-5.4258 1.9219-2.0078 0.019531-3.9531-0.66016-5.5117-1.9219-10.879-8.9102-21.254-18.414-31.082-28.469-2.8281-2.8359-5.7344-5.9062-8.6445-9.0703-1.3125-1.3984-2.5391-2.8008-3.8516-4.2891-24.766 47.16-33.41 101.13-24.613 153.66 8.8008 52.531 34.559 100.74 73.34 137.25s88.449 59.324 141.42 64.945c52.969 5.625 106.32-6.2539 151.9-33.812 45.582-27.559 80.887-69.285 100.52-118.8 19.633-49.516 22.508-104.1 8.1914-155.4-14.316-51.305-45.039-96.512-87.473-128.71-42.43-32.199-94.238-49.617-147.5-49.594zm-226.36 243.86c0-0.60156 0.046875-1.1875 0.050781-1.7891l1.3477 2.4023c0.24609 0.35938 0.53906 0.68359 0.875 0.96094l25.289 19.949 5.1641 24.324c2.3242 10.941 7.7305 20.992 15.574 28.965l6.7383 6.8242c1.3086 1.3125 1.6602 3.3047 0.875 4.9883l-6.4766 13.648c-0.35938 0.76562-0.42188 1.6406-0.17578 2.4492l8.75 28.176c0.15234 0.37891 0.35938 0.73047 0.61328 1.0508l11.461 13.824 2.7266 20.434h0.003906c-22.969-21.164-41.297-46.863-53.832-75.469-12.531-28.609-18.996-59.508-18.984-90.738zm231.11 192.63c0 1.8125-1.4688 3.2812-3.2812 3.2812h-17.5c-1.8125 0-3.2812-1.4688-3.2812-3.2812s1.4688-3.2812 3.2812-3.2812h17.5c1.8125 0 3.2812 1.4688 3.2812 3.2812zm43.75 0c0 1.8125-1.4688 3.2812-3.2812 3.2812h-17.5c-1.8125 0-3.2812-1.4688-3.2812-3.2812s1.4688-3.2812 3.2812-3.2812h17.5c1.8125 0 3.2812 1.4688 3.2812 3.2812zm-43.75-34.992c0 1.8125-1.4688 3.2812-3.2812 3.2812h-17.5c-1.8125 0-3.2812-1.4688-3.2812-3.2812s1.4688-3.2812 3.2812-3.2812h17.5c1.8125 0 3.2812 1.4688 3.2812 3.2812zm66.719 3.2812c-1.8125 0-3.2812-1.4688-3.2812-3.2812s1.4688-3.2812 3.2812-3.2812h17.5c1.8125 0 3.2812 1.4688 3.2812 3.2812s-1.4688 3.2812-3.2812 3.2812zm-22.969-3.2812c0 1.8125-1.4688 3.2812-3.2812 3.2812h-17.5c-1.8125 0-3.2812-1.4688-3.2812-3.2812s1.4688-3.2812 3.2812-3.2812h17.5c1.8125 0 3.2812 1.4688 3.2812 3.2812zm-88.5-108.84c0 1.8125-1.4688 3.2812-3.2812 3.2812h-17.5c-1.8125 0-3.2812-1.4688-3.2812-3.2812s1.4688-3.2812 3.2812-3.2812h17.5c1.8125 0 3.2812 1.4688 3.2812 3.2812zm-47.031-3.2812c1.8125 0 3.2812 1.4688 3.2812 3.2812s-1.4688 3.2812-3.2812 3.2812h-17.5c-1.8125 0-3.2812-1.4688-3.2812-3.2812s1.4688-3.2812 3.2812-3.2812zm70 6.5625c-1.8125 0-3.2812-1.4688-3.2812-3.2812s1.4688-3.2812 3.2812-3.2812h17.5c1.8125 0 3.2812 1.4688 3.2812 3.2812s-1.4688 3.2812-3.2812 3.2812zm-22.387-38.273c0 1.8125-1.4688 3.2812-3.2812 3.2812h-17.5c-1.8125 0-3.2812-1.4688-3.2812-3.2812s1.4688-3.2812 3.2812-3.2812h17.5c1.8125 0 3.2812 1.4688 3.2812 3.2812zm43.75 0c0 1.8125-1.4688 3.2812-3.2812 3.2812h-17.5c-1.8125 0-3.2812-1.4688-3.2812-3.2812s1.4688-3.2812 3.2812-3.2812h17.5c1.8125 0 3.2812 1.4688 3.2812 3.2812zm43.75 0c0 1.8125-1.4688 3.2812-3.2812 3.2812h-17.5c-1.8125 0-3.2812-1.4688-3.2812-3.2812s1.4688-3.2812 3.2812-3.2812h17.5c1.8125 0 3.2812 1.4688 3.2812 3.2812zm-45.863-93.969c0 1.8125-1.4688 3.2812-3.2812 3.2812h-17.5c-1.8086 0-3.2812-1.4688-3.2812-3.2812s1.4727-3.2812 3.2812-3.2812h17.5c1.8125 0 3.2812 1.4688 3.2812 3.2812zm43.75 0c0 1.8125-1.4688 3.2812-3.2812 3.2812h-17.5c-1.8086 0-3.2812-1.4688-3.2812-3.2812s1.4727-3.2812 3.2812-3.2812h17.5c1.8125 0 3.2812 1.4688 3.2812 3.2812zm-212.65-9.6094c16.449-14.262 64.75-58.539 70.613-93.711 1.0859-5.9766 1.668-12.035 1.75-18.113-0.54297-18.867-8.3906-36.785-21.891-49.977s-31.598-20.621-50.473-20.723c-18.891 0.074219-37.016 7.4922-50.535 20.688-13.52 13.191-21.379 31.129-21.914 50.012 0.10938 6.0781 0.72266 12.137 1.8359 18.113 5.7734 35.262 54.074 79.539 70.613 93.711zm0-143.68v0.003906c8.9453 0.011719 17.52 3.5742 23.84 9.9102 6.3164 6.332 9.8594 14.918 9.8477 23.863s-3.5781 17.52-9.9102 23.84c-6.3359 6.3164-14.918 9.8594-23.867 9.8477-8.9453-0.011719-17.52-3.5781-23.836-9.9102-6.3203-6.3359-9.8633-14.918-9.8516-23.863 0.019531-8.9453 3.5859-17.516 9.9219-23.832 6.332-6.3164 14.91-9.8633 23.855-9.8555z"/>
  <use x="70" y="691.25" xlink:href="#n"/>
  <use x="102.109375" y="691.25" xlink:href="#b"/>
  <use x="123.683594" y="691.25" xlink:href="#c"/>
  <use x="153.355469" y="691.25" xlink:href="#a"/>
  <use x="182.878906" y="691.25" xlink:href="#h"/>
  <use x="203.792969" y="691.25" xlink:href="#c"/>
  <use x="233.464844" y="691.25" xlink:href="#g"/>
  <use x="280.011719" y="691.25" xlink:href="#f"/>
  <use x="311.328125" y="691.25" xlink:href="#e"/>
  <use x="355.078125" y="691.25" xlink:href="#a"/>
  <use x="384.601562" y="691.25" xlink:href="#d"/>
  <use x="415.917969" y="691.25" xlink:href="#m"/>
  <use x="447.066406" y="691.25" xlink:href="#l"/>
  <use x="488.339844" y="691.25" xlink:href="#b"/>
  <use x="509.914062" y="691.25" xlink:href="#a"/>
  <use x="539.4375" y="691.25" xlink:href="#k"/>
  <use x="570.582031" y="691.25" xlink:href="#a"/>
  <use x="600.105469" y="691.25" xlink:href="#b"/>
  <use x="621.679688" y="691.25" xlink:href="#j"/>
  <use x="636.679688" y="691.25" xlink:href="#i"/>
 </g>
</svg>
