<svg xmlns="http://www.w3.org/2000/svg" xmlns:xlink="http://www.w3.org/1999/xlink" width="155.404" height="66.531" viewBox="0 0 155.404 66.531">
  <defs>
    <!-- <style>
      .cls-1 {
        fill: #db642a;
      }

      .cls-2 {
        clip-path: url(#clip-path);
      }
    </style> -->
    <clipPath id="clip-path">
      <path id="Path_19" data-name="Path 19" class="cls-1" d="M0-30.053H155.4V-96.584H0Z" transform="translate(0 96.584)"/>
    </clipPath>
  </defs>
  <g id="Group_2" data-name="Group 2" transform="translate(0 96.584)">
    <g id="Group_1" data-name="Group 1" class="cls-2" transform="translate(0 -96.584)">
      <path id="Path_1" data-name="Path 1" class="cls-1" d="M9.147-56.3a5.838,5.838,0,0,0,1.071-3.675,5.918,5.918,0,0,0-1.071-3.694,3.359,3.359,0,0,0-2.795-1.4H2.87a.135.135,0,0,0-.153.151v9.839a.136.136,0,0,0,.153.153H6.352A3.372,3.372,0,0,0,9.147-56.3M11.215-65.4a8.083,8.083,0,0,1,1.722,5.378,7.991,7.991,0,0,1-1.684,5.3,5.511,5.511,0,0,1-4.44,2.01H2.87a.134.134,0,0,0-.153.151v11.561a.339.339,0,0,1-.383.383H.382A.339.339,0,0,1,0-40.994V-67.061a.339.339,0,0,1,.383-.383H6.7A5.623,5.623,0,0,1,11.215-65.4" transform="translate(0.001 87.517)"/>
      <path id="Path_2" data-name="Path 2" class="cls-1" d="M35.728-40.977v-26.03a.338.338,0,0,1,.383-.381h1.952a.338.338,0,0,1,.383.381v26.03a.339.339,0,0,1-.383.383H36.112a.339.339,0,0,1-.383-.383" transform="translate(-11.117 87.499)"/>
      <path id="Path_3" data-name="Path 3" class="cls-1" d="M61.505-64.862v9.683a.136.136,0,0,0,.153.153H65.1a3.425,3.425,0,0,0,2.832-1.359A5.682,5.682,0,0,0,69.007-60a5.765,5.765,0,0,0-1.071-3.636A3.417,3.417,0,0,0,65.1-65.015H61.659a.136.136,0,0,0-.153.153M69.047-40.9,65.141-52.728a.151.151,0,0,0-.151-.116H61.659a.137.137,0,0,0-.153.156v11.712a.339.339,0,0,1-.383.383H59.17a.339.339,0,0,1-.383-.383v-26.03a.338.338,0,0,1,.383-.381h6.315A5.623,5.623,0,0,1,70-65.341,8.02,8.02,0,0,1,71.725-60a8.247,8.247,0,0,1-1.071,4.289,5.811,5.811,0,0,1-2.909,2.525.142.142,0,0,0-.116.193L71.8-41.016l.035.156c0,.177-.114.267-.342.267H69.5a.446.446,0,0,1-.458-.307" transform="translate(-18.292 87.499)"/>
      <path id="Path_4" data-name="Path 4" class="cls-1" d="M142.073-67.389h1.912a.339.339,0,0,1,.383.383v26.028a.338.338,0,0,1-.383.383h-2.256a.423.423,0,0,1-.423-.307l-7.465-19.79c-.026-.077-.063-.109-.114-.1s-.077.058-.077.132l.039,19.676a.339.339,0,0,1-.383.383h-1.952a.337.337,0,0,1-.383-.383V-67.005a.338.338,0,0,1,.383-.383h2.219a.42.42,0,0,1,.42.307l7.5,19.827c.028.077.063.109.116.1s.077-.056.077-.135V-67.005a.339.339,0,0,1,.383-.383" transform="translate(-40.753 87.499)"/>
      <path id="Path_5" data-name="Path 5" class="cls-1" d="M180.579-67.389h1.914a.337.337,0,0,1,.381.383v26.028a.336.336,0,0,1-.381.383h-2.258a.419.419,0,0,1-.421-.307l-7.465-19.79c-.028-.077-.063-.109-.116-.1s-.077.058-.077.132l.039,19.676a.337.337,0,0,1-.381.383h-1.954a.338.338,0,0,1-.383-.383V-67.005a.339.339,0,0,1,.383-.383h2.221a.416.416,0,0,1,.418.307l7.5,19.827c.026.077.063.109.116.1s.074-.056.074-.135V-67.005a.339.339,0,0,1,.383-.383" transform="translate(-52.735 87.499)"/>
      <path id="Path_6" data-name="Path 6" class="cls-1" d="M219.737-65.015h-8.88a.136.136,0,0,0-.153.153v9.493a.136.136,0,0,0,.153.153h5.587a.338.338,0,0,1,.383.383v1.645a.339.339,0,0,1-.383.383h-5.587a.135.135,0,0,0-.153.151v9.532a.136.136,0,0,0,.153.153h8.88a.338.338,0,0,1,.383.381v1.61a.339.339,0,0,1-.383.383H208.37a.339.339,0,0,1-.383-.383v-26.03a.338.338,0,0,1,.383-.381h11.368a.338.338,0,0,1,.383.381V-65.4a.339.339,0,0,1-.383.383" transform="translate(-64.717 87.499)"/>
      <path id="Path_7" data-name="Path 7" class="cls-1" d="M96.029-24.125H104.6v-37.8a4.457,4.457,0,0,0-3.562-4.47,4.293,4.293,0,0,0-5.014,4.226Zm10.118,2.3H94.488a.763.763,0,0,1-.764-.764V-61.906A6.768,6.768,0,0,1,99-68.632a6.6,6.6,0,0,1,7.911,6.463v39.584a.765.765,0,0,1-.764.764" transform="translate(-29.163 87.926)"/>
      <path id="Path_8" data-name="Path 8" class="cls-1" d="M59.846-6.261l-.867.881-.632-.662,1.64-1.647h.966v5.2H59.846Z" transform="translate(-18.155 68.924)"/>
      <path id="Path_9" data-name="Path 9" class="cls-1" d="M71.413-6.715H68.79v-.976H72.7v.774L70.765-2.489H69.547Z" transform="translate(-21.405 68.924)"/>
      <path id="Path_10" data-name="Path 10" class="cls-1" d="M134.116-4.971a1.338,1.338,0,0,0-1.015.5A1.065,1.065,0,0,0,134.165-3.4a.834.834,0,0,0,.918-.771c0-.562-.458-.8-.967-.8M134.4-7.8a2.34,2.34,0,0,1,1.536.539l-.5.834a1.385,1.385,0,0,0-1.036-.414,1.373,1.373,0,0,0-1.3,1.505.792.792,0,0,0,0,.109,1.7,1.7,0,0,1,1.336-.662,1.637,1.637,0,0,1,1.768,1.675,1.826,1.826,0,0,1-1.986,1.789c-1.584,0-2.247-1.22-2.247-2.686A2.4,2.4,0,0,1,134.4-7.8" transform="translate(-41.064 68.959)"/>
      <path id="Path_11" data-name="Path 11" class="cls-1" d="M147-6.715H144.38v-.976h3.908v.774l-1.935,4.428h-1.217Z" transform="translate(-44.925 68.924)"/>
      <path id="Path_12" data-name="Path 12" class="cls-1" d="M63.783-92.9l1.092.546A3.373,3.373,0,0,1,62-91.017c-1.965,0-3.243-1.041-3.243-2.783s1.278-2.783,3.3-2.783a3.328,3.328,0,0,1,2.806,1.331l-1.1.546a1.873,1.873,0,0,0-1.719-.846c-1.241,0-2.065.6-2.065,1.752s.825,1.749,2.065,1.749a1.9,1.9,0,0,0,1.742-.853" transform="translate(-18.283 96.584)"/>
      <path id="Path_13" data-name="Path 13" class="cls-1" d="M79.252-96.345v5.237h-1.2v-2.133H74.485v2.133H73.291v-5.237h1.194v2.058h3.569v-2.058Z" transform="translate(-22.805 96.509)"/>
      <path id="Path_14" data-name="Path 14" class="cls-1" d="M91.832-93.188l-1.085-2.13-1.085,2.13Zm.5.971H89.17l-.562,1.108H87.332l2.774-5.237h1.308l2.776,5.237h-1.3Z" transform="translate(-27.174 96.51)"/>
      <path id="Path_15" data-name="Path 15" class="cls-1" d="M106.395-95.312h-2.288v4.205h-1.2v-4.205h-2.272v-1.032h5.759Z" transform="translate(-31.314 96.509)"/>
      <path id="Path_16" data-name="Path 16" class="cls-1" d="M119.929-92.111v1h-5.392v-5.237h5.318v1h-4.131v1.078h3.45v1h-3.45v1.152Z" transform="translate(-35.639 96.509)"/>
      <path id="Path_17" data-name="Path 17" class="cls-1" d="M131.712-93.188l-1.085-2.13-1.085,2.13Zm.5.971H129.05l-.562,1.108h-1.276l2.774-5.237h1.308l2.776,5.237h-1.3Z" transform="translate(-39.583 96.51)"/>
      <path id="Path_18" data-name="Path 18" class="cls-1" d="M147.85-96.345v2.767c0,1.573-1.041,2.635-2.941,2.635s-2.939-1.062-2.939-2.635v-2.767h1.2v2.679a1.554,1.554,0,0,0,1.742,1.675,1.553,1.553,0,0,0,1.742-1.675v-2.679Z" transform="translate(-44.175 96.509)"/>
    </g>
  </g>
</svg>
