<svg xmlns="http://www.w3.org/2000/svg" width="46.538" height="57.397" viewBox="0 0 46.538 57.397">
  <g id="Group_27" data-name="Group 27" transform="translate(-603.752 -60.198)">
    <g id="Group_1656" data-name="Group 1656" transform="translate(604 60.442)">
      <path id="Path_92" data-name="Path 92" d="M17.613,34.908c2.56-14.377,4.262-24.03,4.262-24.03L10.187,8.4S7.322,19.147,4.337,32.1c-1.118,4.853,3.578,8.11,5.047,8.421S16.733,39.848,17.613,34.908Z" fill="none" stroke="#1d3b35" stroke-linecap="round" stroke-linejoin="round" stroke-width="1.3"/>
      <line id="Line_1" data-name="Line 1" x1="2.663" y2="12.57" transform="translate(6.721 40.516)" fill="none" stroke="#1d3b35" stroke-linecap="round" stroke-linejoin="round" stroke-width="1.3"/>
      <path id="Path_93" data-name="Path 93" d="M11.1,56.451,1.351,54.385a1.192,1.192,0,0,1,.493-2.332L11.6,54.119a1.192,1.192,0,1,1-.495,2.332Z" fill="none" stroke="#1d3b35" stroke-linecap="round" stroke-linejoin="round" stroke-width="1.3"/>
      <path id="Path_94" data-name="Path 94" d="M28.406,34.908c-2.56-14.377-4.262-24.03-4.262-24.03L35.832,8.4S38.7,19.147,41.682,32.1c1.118,4.853-3.578,8.11-5.047,8.421S29.286,39.848,28.406,34.908Z" fill="none" stroke="#1d3b35" stroke-linecap="round" stroke-linejoin="round" stroke-width="1.3"/>
      <line id="Line_2" data-name="Line 2" x2="2.663" y2="12.57" transform="translate(36.635 40.516)" fill="none" stroke="#1d3b35" stroke-linecap="round" stroke-linejoin="round" stroke-width="1.3"/>
      <path id="Path_95" data-name="Path 95" d="M34.917,56.451l9.752-2.066a1.192,1.192,0,1,0-.494-2.332l-9.752,2.066a1.192,1.192,0,0,0,.494,2.332Z" fill="none" stroke="#1d3b35" stroke-linecap="round" stroke-linejoin="round" stroke-width="1.3"/>
      <line id="Line_3" data-name="Line 3" y1="6.253" transform="translate(22.912 0.406)" fill="none" stroke="#1d3b35" stroke-linecap="round" stroke-linejoin="round" stroke-width="1.3"/>
      <line id="Line_4" data-name="Line 4" x1="2.283" y1="3.38" transform="translate(18.794 3.532)" fill="none" stroke="#1d3b35" stroke-linecap="round" stroke-linejoin="round" stroke-width="1.3"/>
      <line id="Line_5" data-name="Line 5" y1="3.38" x2="2.283" transform="translate(24.888 3.532)" fill="none" stroke="#1d3b35" stroke-linecap="round" stroke-linejoin="round" stroke-width="1.3"/>
      <path id="Path_96" data-name="Path 96" d="M5.426,26.917c2.493-2.67,9.2,3.678,13.789-.327" fill="none" stroke="#1d3b35" stroke-linecap="round" stroke-linejoin="round" stroke-width="1.3"/>
      <path id="Path_97" data-name="Path 97" d="M26.892,27.009c2.373-1.987,8.95,2.917,13.328-.051" fill="none" stroke="#1d3b35" stroke-linecap="round" stroke-linejoin="round" stroke-width="1.3"/>
      <line id="Line_6" data-name="Line 6" x1="1.704" y2="9.185" transform="translate(17.597 12.764)" fill="none" stroke="#1d3b35" stroke-linecap="round" stroke-linejoin="round" stroke-width="1.3"/>
      <line id="Line_7" data-name="Line 7" x1="0.176" y2="1.116" transform="translate(16.939 24.083)" fill="none" stroke="#1d3b35" stroke-linecap="round" stroke-linejoin="round" stroke-width="1.3"/>
      <line id="Line_8" data-name="Line 8" x2="2.173" y2="9.085" transform="translate(34.398 11.202)" fill="none" stroke="#1d3b35" stroke-linecap="round" stroke-linejoin="round" stroke-width="1.3"/>
      <line id="Line_9" data-name="Line 9" x2="0.292" y2="1.092" transform="translate(36.996 22.433)" fill="none" stroke="#1d3b35" stroke-linecap="round" stroke-linejoin="round" stroke-width="1.3"/>
    </g>
  </g>
</svg>
