<svg id="Laag_1" data-name="Laag 1" xmlns="http://www.w3.org/2000/svg" xmlns:xlink="http://www.w3.org/1999/xlink" viewBox="0 0 546.98 772.82"><defs><style>.cls-1,.cls-44,.cls-45,.cls-57,.cls-58,.cls-59,.cls-60,.cls-61,.cls-62,.cls-70,.cls-84,.cls-86,.cls-87,.cls-88,.cls-94,.cls-95{fill:none;}.cls-2{clip-path:url(#clip-path);}.cls-3{fill:#e2e2e2;}.cls-10,.cls-11,.cls-12,.cls-13,.cls-14,.cls-15,.cls-17,.cls-18,.cls-19,.cls-20,.cls-21,.cls-22,.cls-23,.cls-24,.cls-25,.cls-27,.cls-28,.cls-29,.cls-31,.cls-32,.cls-33,.cls-34,.cls-35,.cls-36,.cls-37,.cls-38,.cls-4,.cls-41,.cls-42,.cls-46,.cls-47,.cls-48,.cls-49,.cls-5,.cls-50,.cls-51,.cls-52,.cls-53,.cls-54,.cls-55,.cls-56,.cls-6,.cls-63,.cls-64,.cls-65,.cls-66,.cls-67,.cls-68,.cls-7,.cls-8,.cls-85,.cls-9,.cls-90,.cls-91,.cls-92,.cls-93{isolation:isolate;}.cls-10,.cls-5,.cls-6,.cls-7,.cls-8,.cls-9{font-size:18px;}.cls-10,.cls-11,.cls-12,.cls-13,.cls-14,.cls-15,.cls-17,.cls-18,.cls-19,.cls-20,.cls-21,.cls-22,.cls-23,.cls-24,.cls-25,.cls-27,.cls-28,.cls-29,.cls-31,.cls-32,.cls-33,.cls-34,.cls-35,.cls-36,.cls-37,.cls-38,.cls-5,.cls-6,.cls-7,.cls-8,.cls-89,.cls-9,.cls-90,.cls-91,.cls-92,.cls-93{fill:#162234;}.cls-10,.cls-32,.cls-33,.cls-34,.cls-35,.cls-36,.cls-37,.cls-38,.cls-5,.cls-6,.cls-7,.cls-8,.cls-9{font-family:Arial-BoldMT, Arial;font-weight:700;}.cls-5{letter-spacing:-0.05em;}.cls-6{letter-spacing:0em;}.cls-7{letter-spacing:-0.02em;}.cls-8{letter-spacing:-0.01em;}.cls-29,.cls-55,.cls-9{letter-spacing:0em;}.cls-11,.cls-12,.cls-13,.cls-14,.cls-15,.cls-17,.cls-18,.cls-19,.cls-20,.cls-21,.cls-22,.cls-23,.cls-24,.cls-25,.cls-27,.cls-28,.cls-29,.cls-31,.cls-41,.cls-42,.cls-46,.cls-47,.cls-48,.cls-49,.cls-50,.cls-51,.cls-52,.cls-53,.cls-54,.cls-55,.cls-56,.cls-63,.cls-64,.cls-65,.cls-66,.cls-68,.cls-85{font-size:6px;}.cls-11,.cls-12,.cls-13,.cls-14,.cls-15,.cls-17,.cls-18,.cls-19,.cls-20,.cls-21,.cls-22,.cls-23,.cls-24,.cls-25,.cls-27,.cls-28,.cls-29,.cls-31,.cls-41,.cls-42,.cls-46,.cls-47,.cls-48,.cls-49,.cls-50,.cls-51,.cls-52,.cls-53,.cls-54,.cls-55,.cls-56,.cls-63,.cls-64,.cls-65,.cls-66,.cls-67,.cls-68,.cls-85,.cls-90,.cls-91,.cls-92,.cls-93{font-family:ArialMT, Arial;}.cls-11{letter-spacing:-0.14em;}.cls-12{letter-spacing:-0.2em;}.cls-13{letter-spacing:-0.03em;}.cls-15,.cls-46{letter-spacing:-0.01em;}.cls-16{letter-spacing:-0.02em;}.cls-17{letter-spacing:0em;}.cls-18{letter-spacing:0em;}.cls-19{letter-spacing:-0.03em;}.cls-20{letter-spacing:-0.04em;}.cls-21,.cls-47{letter-spacing:-0.02em;}.cls-22,.cls-42{letter-spacing:0.01em;}.cls-23{letter-spacing:0.01em;}.cls-24{letter-spacing:-0.03em;}.cls-25{letter-spacing:-0.02em;}.cls-26{fill:#fff;}.cls-27,.cls-33,.cls-64{letter-spacing:0em;}.cls-28,.cls-68{letter-spacing:0em;}.cls-30{letter-spacing:-0.04em;}.cls-31,.cls-48{letter-spacing:-0.01em;}.cls-32,.cls-33,.cls-34,.cls-35,.cls-36,.cls-37,.cls-38,.cls-67{font-size:5px;}.cls-34{letter-spacing:0em;}.cls-35{letter-spacing:-0.05em;}.cls-36{letter-spacing:-0.01em;}.cls-37{letter-spacing:-0.01em;}.cls-38{letter-spacing:-0.03em;}.cls-39{fill:#83cae4;}.cls-40{fill:#c174a8;}.cls-41,.cls-42,.cls-43,.cls-46,.cls-47,.cls-48,.cls-49,.cls-50,.cls-51,.cls-52,.cls-53,.cls-54,.cls-55,.cls-56,.cls-63,.cls-64,.cls-65,.cls-66,.cls-67,.cls-68,.cls-85{fill:#929497;}.cls-44{stroke:#d0d2d3;}.cls-44,.cls-45,.cls-70,.cls-94{stroke-width:0.25px;}.cls-45{stroke:#e5e5e4;}.cls-49{letter-spacing:-0.05em;}.cls-50{letter-spacing:-0.02em;}.cls-51{letter-spacing:-0.02em;}.cls-52{letter-spacing:-0.02em;}.cls-53{letter-spacing:-0.01em;}.cls-54{letter-spacing:-0.05em;}.cls-56{letter-spacing:-0.01em;}.cls-57{stroke:#676f79;stroke-linecap:round;stroke-linejoin:round;}.cls-58{stroke:#f18d20;}.cls-59{stroke:#1cbbed;}.cls-60{stroke:#6aba44;}.cls-61{stroke:#7575b4;}.cls-62{stroke:#f5ea00;}.cls-63{letter-spacing:-0.05em;}.cls-65{letter-spacing:-0.05em;}.cls-66{letter-spacing:-0.02em;}.cls-69{clip-path:url(#clip-path-6);}.cls-70{stroke:#e6e7e8;}.cls-71{clip-path:url(#clip-path-7);}.cls-72{clip-path:url(#clip-path-8);}.cls-73{clip-path:url(#clip-path-9);}.cls-74{clip-path:url(#clip-path-10);}.cls-75{clip-path:url(#clip-path-11);}.cls-76{clip-path:url(#clip-path-12);}.cls-77{clip-path:url(#clip-path-13);}.cls-78{clip-path:url(#clip-path-14);}.cls-79{clip-path:url(#clip-path-15);}.cls-80{clip-path:url(#clip-path-16);}.cls-81{clip-path:url(#clip-path-17);}.cls-82{clip-path:url(#clip-path-18);}.cls-83{clip-path:url(#clip-path-19);}.cls-84{stroke:#d9dbdc;}.cls-85{letter-spacing:-0.01em;}.cls-86{stroke:#b23d78;}.cls-87{stroke:#00a679;}.cls-88{stroke:#00adee;}.cls-90,.cls-91,.cls-92,.cls-93{font-size:7px;}.cls-90{letter-spacing:0.01em;}.cls-91{letter-spacing:-0.01em;}.cls-93{letter-spacing:-0.01em;}.cls-94,.cls-95{stroke:#162234;}.cls-95{stroke-width:0.75px;}</style><clipPath id="clip-path" transform="translate(0 0)"><rect class="cls-1" width="546.98" height="772.82"/></clipPath><clipPath id="clip-path-6" transform="translate(0 0)"><rect class="cls-1" x="57.94" y="159.63" width="0.23" height="551.08"/></clipPath><clipPath id="clip-path-7" transform="translate(0 0)"><rect class="cls-1" x="92.2" y="159.62" width="0.23" height="551.08"/></clipPath><clipPath id="clip-path-8" transform="translate(0 0)"><rect class="cls-1" x="126.46" y="159.62" width="0.23" height="551.08"/></clipPath><clipPath id="clip-path-9" transform="translate(0 0)"><rect class="cls-1" x="160.73" y="159.62" width="0.23" height="551.08"/></clipPath><clipPath id="clip-path-10" transform="translate(0 0)"><rect class="cls-1" x="194.99" y="159.62" width="0.23" height="551.08"/></clipPath><clipPath id="clip-path-11" transform="translate(0 0)"><rect class="cls-1" x="229.25" y="159.62" width="0.23" height="551.08"/></clipPath><clipPath id="clip-path-12" transform="translate(0 0)"><rect class="cls-1" x="263.51" y="159.62" width="0.23" height="551.08"/></clipPath><clipPath id="clip-path-13" transform="translate(0 0)"><rect class="cls-1" x="297.78" y="159.61" width="0.23" height="551.08"/></clipPath><clipPath id="clip-path-14" transform="translate(0 0)"><rect class="cls-1" x="332.04" y="159.61" width="0.23" height="551.08"/></clipPath><clipPath id="clip-path-15" transform="translate(0 0)"><rect class="cls-1" x="366.3" y="159.61" width="0.23" height="551.08"/></clipPath><clipPath id="clip-path-16" transform="translate(0 0)"><rect class="cls-1" x="400.56" y="159.61" width="0.23" height="551.08"/></clipPath><clipPath id="clip-path-17" transform="translate(0 0)"><rect class="cls-1" x="434.83" y="159.61" width="0.23" height="551.08"/></clipPath><clipPath id="clip-path-18" transform="translate(0 0)"><rect class="cls-1" x="469.09" y="159.6" width="0.23" height="551.08"/></clipPath><clipPath id="clip-path-19" transform="translate(0 0)"><rect class="cls-1" x="503.35" y="159.6" width="0.23" height="551.08"/></clipPath></defs><g id="Group_73" data-name="Group 73"><g class="cls-2"><g id="Group_72" data-name="Group 72"><rect id="Rectangle_55" data-name="Rectangle 55" class="cls-3" width="546.98" height="772.82"/><g id="AE785660" class="cls-4"><text class="cls-5" transform="translate(15.92 39.9)">A</text><text class="cls-6" transform="translate(28.7 39.9)">E</text><text class="cls-7" transform="translate(40.67 39.9)">7</text><text class="cls-8" transform="translate(50.27 39.9)">8</text><text class="cls-6" transform="translate(60.14 39.9)">5</text><text class="cls-9" transform="translate(70.11 39.9)">66</text><text class="cls-10" transform="translate(89.95 39.9)">0</text></g><g id="PATIENT_ID" data-name="PATIENT ID" class="cls-4"><text class="cls-11" transform="translate(15.23 20.66)">P</text><text class="cls-12" transform="translate(18.52 20.66)">A</text><text class="cls-13" transform="translate(21.66 20.66)">T</text><text class="cls-14" transform="translate(25.26 20.66)">IE</text><text class="cls-15" transform="translate(30.93 20.66)">N</text><text class="cls-14" transform="translate(35.21 20.66)"><tspan class="cls-16">T</tspan><tspan x="3.56" y="0" xml:space="preserve"> ID</tspan></text></g><g id="Nom:_Desender" data-name="Nom: Desender" class="cls-4"><text class="cls-14" transform="translate(15.58 57.5)">Nom: </text><text class="cls-17" transform="translate(31.58 57.5)">D</text><text class="cls-18" transform="translate(35.94 57.5)">e</text><text class="cls-14" transform="translate(39.25 57.5)">sender</text></g><g id="Prenom:_Dimitri" data-name="Prenom: Dimitri" class="cls-4"><text class="cls-19" transform="translate(15.58 66.32)">P</text><text class="cls-20" transform="translate(19.49 66.32)">r</text><text class="cls-14" transform="translate(21.26 66.32)">enom: Dimit</text><text class="cls-15" transform="translate(53.27 66.32)">r</text><text class="cls-14" transform="translate(55.21 66.32)">i</text></g><g id="Date_de_Naissance_:_01_03_1984" data-name="Date de Naissance : 01 03 1984" class="cls-4"><text class="cls-15" transform="translate(15.58 75.13)">D</text><text class="cls-21" transform="translate(19.86 75.13)">a</text><text class="cls-15" transform="translate(23.08 75.13)">t</text><text class="cls-14" transform="translate(24.69 75.13)">e de </text><text class="cls-18" transform="translate(38.04 75.13)">Na</text><text class="cls-14" transform="translate(45.65 75.13)">i</text><text class="cls-22" transform="translate(46.98 75.13)">s</text><text class="cls-23" transform="translate(50.03 75.13)">s</text><text class="cls-14" transform="translate(53.12 75.13)">ance : </text><text class="cls-24" transform="translate(71.14 75.13)">0</text><text class="cls-25" transform="translate(74.29 75.13)">1</text><text class="cls-21" transform="translate(77.51 75.13)">/</text><text class="cls-25" transform="translate(79.06 75.13)">0</text><text class="cls-14" transform="translate(82.28 75.13)">3/1</text><text class="cls-18" transform="translate(90.62 75.13)">9</text><text class="cls-14" transform="translate(93.93 75.13)">84</text></g><rect id="Rectangle_56" data-name="Rectangle 56" class="cls-26" y="92.67" width="546.4" height="618.04"/><g id="Hardware_:_Somnilog_sleep_tracker" data-name="Hardware : Somnilog sleep tracker" class="cls-4"><text class="cls-14" transform="translate(26.76 735.32)">Ha</text><text class="cls-27" transform="translate(34.43 735.32)">r</text><text class="cls-14" transform="translate(36.43 735.32)">d</text><text class="cls-27" transform="translate(39.76 735.32)">w</text><text class="cls-14" transform="translate(44.09 735.32)">a</text><text class="cls-28" transform="translate(47.43 735.32)">r</text><text class="cls-14" transform="translate(49.41 735.32)">e : Somnilog sleep trac</text><text class="cls-21" transform="translate(110.45 735.32)">k</text><text class="cls-14" transform="translate(113.33 735.32)">er</text></g><g id="Date_d_examen_:_21_01_2022" data-name="Date d examen : 21 01 2022" class="cls-4"><text class="cls-14" transform="translate(26.76 744.14)">D</text><text class="cls-27" transform="translate(31.1 744.14)">a</text><text class="cls-29" transform="translate(34.43 744.14)">t</text><text class="cls-14" transform="translate(36.07 744.14)">e d<tspan class="cls-30" x="8.34" y="0">’</tspan></text><text class="cls-31" transform="translate(45.75 744.14)">e</text><text class="cls-27" transform="translate(49.04 744.14)">x</text><text class="cls-14" transform="translate(52.03 744.14)">amen : 21/01/2022</text></g><g id="Rapport_De_Polysomnographie" data-name="Rapport De Polysomnographie" class="cls-4"><text class="cls-32" transform="translate(15.21 106.58)">Rappo</text><text class="cls-33" transform="translate(30.77 106.58)">r</text><text class="cls-32" transform="translate(32.71 106.58)">t </text><text class="cls-34" transform="translate(35.76 106.58)">D</text><text class="cls-32" transform="translate(39.4 106.58)">e </text><text class="cls-35" transform="translate(43.57 106.58)">P</text><text class="cls-32" transform="translate(46.75 106.58)">o</text><text class="cls-36" transform="translate(49.81 106.58)">l</text><text class="cls-37" transform="translate(51.16 106.58)">y</text><text class="cls-32" transform="translate(53.9 106.58)">somnog</text><text class="cls-38" transform="translate(73.34 106.58)">r</text><text class="cls-32" transform="translate(75.1 106.58)">aphie</text></g><g id="Group_19" data-name="Group 19"><g class="cls-2"><g id="Group_18" data-name="Group 18"><path id="Path_136" data-name="Path 136" class="cls-39" d="M281,329.39l-2.37-14s.39,33.09-.4,14-.79-23.54-.79-23.54l-2.07,23.54-1.78-30.54-1,30.54-2-36.9-.49,36.9-3.16-24.17s1.48,44.53-.2,24.17-1.68-31.17-1.68-31.17l-1.78,19.08-2.17-35-.7,31.81-1.28-14-1,29.27-1.48-28.63-.49,28.63-1.29-26.72-1.08,26.72-.6-33.72-3.28,19.72s.39,33.09-.4,14-.79-23.54-.79-23.54l-2.08,23.54-1.77-30.54-1,30.54-2-36.9-.49,36.9-3.16-24.17s1.48,44.53-.2,24.17-1.68-31.17-1.68-31.17l-1.78,19.09-2.17-35-.69,31.82-1.28-14-1,29.26L228,300.76l-.5,28.63-1.28-26.72-1.08,26.72-.59-33.72-1,15.59s.39,33.09-.4,14-.79-23.54-.79-23.54l-2.08,23.54-1.77-30.54-1,30.54-2-36.9-.49,36.9-3.16-24.18s1.48,44.54-.2,24.18S210,294.08,210,294.08l-1.78,19.09-2.17-35L205.32,310,204,296l-1,29.27-1.49-28.63-.49,28.63-1.28-26.72-1.09,26.72-.59-33.72-3.29,19.72s.4,33.09-.39,14-.79-23.54-.79-23.54l-2.08,23.54-1.78-30.54-1,30.54-2-36.91-.49,36.9-3.16-24.17s1.48,44.53-.2,24.17-1.68-31.17-1.68-31.17l-1.77,19.09-2.17-35L176.66,310l-1.29-14-1,29.27-1.49-28.63-.49,28.63-1.29-26.72L170,325.26l-.59-33.72-.59,33.72-1.08-26.72-1.29,26.72L166,296.63l-1.48,28.63-1-29.27-1.29,14-.69-31.81-2.17,35-1.78-19.09s0,10.82-1.68,31.18-.2-24.18-.2-24.18l-3.16,24.18-.49-36.9-2,36.9-1-30.54-1.77,30.54-2.07-23.54s0,4.45-.79,23.54-.4-14-.4-14l-3.29-19.72-.59,33.72-1.08-26.72-1.29,26.72-.49-28.63-1.48,28.63-1-29.27-1.28,14-.69-31.81-2.18,35-1.78-19.09s0,10.82-1.68,31.18-.2-24.18-.2-24.18l-3.16,24.18-.49-36.9-2,36.9-1-30.54-1.77,30.54-2.08-23.54s0,4.45-.79,23.54-.39-14-.39-14l-1-15.59-.6,33.72-1.08-26.72-1.29,26.72-.49-28.63-1.48,28.63-1-29.26-1.28,14-.69-31.82-2.17,35-1.78-19.09s0,10.81-1.68,31.17-.2-24.17-.2-24.17l-3.16,24.17-.5-36.9-2,36.9-1-30.54-1.78,30.54-2.07-23.54s0,4.46-.79,23.54-.4-14-.4-14l-3.29-19.72-.59,33.72L84,302.67l-1.28,26.72-.49-28.63-1.49,28.63-1-29.27-1.29,14-.69-31.81-2.16,35-1.78-19.08s0,10.81-1.68,31.17-.2-24.17-.2-24.17L68.8,329.39l-.49-36.9-2,36.9-1-30.54-1.78,30.54-2.08-23.54s0,4.46-.78,23.54-.4-14-.4-14l-2.37,14" transform="translate(0 0)"/><path id="Path_137" data-name="Path 137" class="cls-39" d="M503.88,329.39l-2.37-14s.39,33.09-.4,14-.79-23.54-.79-23.54l-2.07,23.54-1.78-30.54-1,30.54-2-36.9-.5,36.9-3.16-24.17s1.48,44.53-.2,24.17S488,298.22,488,298.22L486.2,317.3l-2.18-35-.69,31.81-1.28-14-1,29.27-1.48-28.63-.5,28.63-1.28-26.72-1.08,26.72-.6-33.72-3.28,19.72s.39,33.09-.4,14-.79-23.54-.79-23.54l-2.08,23.54-1.78-30.54-1,30.54-2-36.9-.49,36.9-3.16-24.17s1.48,44.53-.2,24.17-1.68-31.17-1.68-31.17l-1.78,19.09-2.17-35-.69,31.82-1.29-14-1,29.26-1.48-28.63-.49,28.63-1.28-26.72L448,329.39l-.59-33.72-1,15.59s.4,33.09-.4,14-.79-23.54-.79-23.54l-2.07,23.54-1.76-30.54-1,30.54-2-36.9-.49,36.9-3.16-24.18s1.48,44.54-.2,24.18-1.67-31.18-1.67-31.18l-1.78,19.09-2.17-35-.7,31.81L427,296l-1,29.27-1.48-28.63-.5,28.63-1.28-26.72-1.09,26.72L421,291.54l-3.29,19.72s.4,33.09-.39,14-.79-23.54-.79-23.54l-2.07,23.54-1.78-30.54-1,30.54-2-36.9-.5,36.9-3.16-24.18s1.48,44.54-.2,24.18-1.68-31.18-1.68-31.18l-1.78,19.09-2.17-35-.7,31.81-1.28-14-1,29.27-1.48-28.63-.49,28.63-1.28-26.72L393,325.26l-.6-33.72-.59,33.72-1.08-26.72-1.29,26.72-.49-28.63-1.48,28.63-1-29.27-1.28,14-.7-31.81-2.17,35-1.78-19.09s0,10.82-1.68,31.18-.2-24.18-.2-24.18l-3.16,24.18-.5-36.9-2,36.9-1-30.54-1.78,30.54-2.07-23.54s0,4.45-.79,23.54-.4-14-.4-14l-3.28-19.72-.59,33.72L362,298.54l-1.28,26.72-.49-28.63-1.48,28.63-1-29.27-1.29,14-.69-31.81-2.17,35-1.78-19.09s0,10.82-1.68,31.18-.2-24.18-.2-24.18l-3.16,24.18-.49-36.9-2,36.9-1-30.54-1.78,30.54-2.08-23.54s0,4.45-.79,23.54-.39-14-.39-14l-1-15.59-.6,33.72-1.08-26.72-1.29,26.72-.49-28.63-1.48,28.63-1-29.26-1.28,14-.69-31.82-2.18,35-1.77-19.09s0,10.81-1.68,31.17-.2-24.17-.2-24.17l-3.16,24.17-.5-36.9-2,36.9-1-30.54-1.78,30.54-2.06-23.54s0,4.46-.79,23.54-.4-14-.4-14l-3.29-19.72L308,329.39l-1.09-26.72-1.28,26.72-.5-28.63-1.48,28.63-1-29.27-1.28,14-.69-31.81-2.17,35-1.78-19.08s0,10.81-1.68,31.17-.2-24.18-.2-24.18l-3.16,24.18-.49-36.9-2,36.9-1-30.54-1.77,30.54-2.08-23.54s0,4.45-.79,23.54-.4-14-.4-14l-2.37,14" transform="translate(0 0)"/><path id="Path_138" data-name="Path 138" class="cls-40" d="M281,329.2l-2.37,5.69s.39-13.44-.4-5.69-.79,9.57-.79,9.57l-2.07-9.57-1.78,12.41-1-12.41-2,15-.49-15L266.93,339s1.48-18.1-.2-9.83a71.3,71.3,0,0,0-1.68,12.67l-1.78-7.76-2.17,14.22-.7-12.92-1.28,5.68-1-11.89-1.48,11.63-.49-11.63-1.29,10.86-1.08-10.86-.59,13.7-3.29-8s.39-13.44-.4-5.68-.79,9.56-.79,9.56l-2.08-9.56-1.77,12.41-1-12.41-2,15-.49-15L238.25,339s1.48-18.1-.2-9.82a71.07,71.07,0,0,0-1.68,12.66l-1.78-7.75-2.17,14.22-.69-12.93-1.28,5.69-1-11.89L228,340.83l-.49-11.63-1.29,10.86-1.08-10.86-.59,13.7-1-6.33s.39-13.45-.4-5.69-.79,9.57-.79,9.57l-2.08-9.57-1.77,12.41-1-12.41-2,15-.49-15-3.16,9.82s1.48-18.1-.2-9.82A71.06,71.06,0,0,0,210,343.55l-1.77-7.76L206,350l-.69-12.92L204,342.78l-1-11.89-1.48,11.63-.5-11.63-1.28,10.85-1.09-10.85-.59,13.7-3.29-8s.4-13.44-.39-5.69-.79,9.57-.79,9.57l-2.08-9.57-1.78,12.41-1-12.41-2,15-.49-15-3.16,9.83s1.48-18.1-.2-9.83a71.3,71.3,0,0,0-1.68,12.67l-1.77-7.76L177.35,350l-.69-12.93-1.29,5.69-1-11.89-1.49,11.63-.49-11.63-1.29,10.86L170,330.88l-.59,13.7-.59-13.7-1.09,10.86-1.28-10.86L166,342.52l-1.48-11.64-1,11.89-1.29-5.68L161.54,350l-2.17-14.22-1.78,7.76a71.06,71.06,0,0,0-1.68-12.67c-1.68-8.27-.2,9.82-.2,9.82l-3.16-9.82-.49,15-2-15-1,12.41-1.77-12.41-2.07,9.57s0-1.81-.79-9.57-.4,5.69-.4,5.69l-3.29,8-.59-13.7-1.08,10.85-1.29-10.85-.49,11.63-1.48-11.63-1,11.89-1.29-5.69L132.87,350l-2.17-14.23-1.78,7.76a72,72,0,0,0-1.67-12.67c-1.68-8.27-.2,9.82-.2,9.82l-3.17-9.82-.49,15-2-15-1,12.41-1.78-12.41-2.07,9.57s0-1.81-.79-9.57-.4,5.69-.4,5.69l-1,6.33-.59-13.7-1.09,10.86L111.4,329.2l-.5,11.64-1.48-11.64-1,11.9-1.28-5.69-.69,12.92-2.17-14.22-1.78,7.76a71.3,71.3,0,0,0-1.68-12.67c-1.68-8.27-.2,9.83-.2,9.83l-3.16-9.83-.5,15-2-15-1,12.41L92.24,329.2l-2.08,9.57s0-1.81-.78-9.57-.41,5.69-.41,5.69l-3.28,8-.6-13.7L84,340.06,82.73,329.2l-.5,11.64L80.75,329.2l-1,11.89-1.29-5.69-.69,12.93-2.17-14.22-1.78,7.76a72.22,72.22,0,0,0-1.67-12.67C70.49,320.93,72,339,72,339l-3.16-9.83-.5,15-2-15-1,12.41L63.57,329.2l-2.07,9.57s0-1.81-.79-9.57-.4,5.69-.4,5.69l-2.37-5.69" transform="translate(0 0)"/><path id="Path_139" data-name="Path 139" class="cls-40" d="M503.88,329.36l-2.37,5.69s.39-13.45-.4-5.69-.79,9.56-.79,9.56l-2.07-9.56-1.78,12.41-1-12.41-2,15-.5-15-3.16,9.82s1.48-18.1-.2-9.82A71.06,71.06,0,0,0,488,342l-1.78-7.76L484,348.49l-.69-12.93-1.28,5.69-1-11.89L479.58,341l-.5-11.63-1.28,10.86-1.09-10.86-.59,13.7-3.29-8s.4-13.44-.4-5.69-.79,9.57-.79,9.57l-2.07-9.57-1.77,12.42-1-12.41-2,15-.49-15-3.16,9.82s1.48-18.1-.2-9.82A71.06,71.06,0,0,0,459.3,342l-1.78-7.76-2.17,14.22-.69-12.93-1.29,5.69-1-11.89L450.9,341l-.49-11.63-1.28,10.86L448,329.36l-.59,13.7-1-6.34s.39-13.44-.4-5.69-.79,9.57-.79,9.57L443.15,331l-1.78,12.41-1-12.41-2,15-.49-15-3.16,9.83s1.48-18.1-.2-9.83a71.26,71.26,0,0,0-1.66,12.68L431.12,336,429,350.17l-.7-12.93L427,342.93,426,331l-1.48,11.64L424,331l-1.28,10.86L421.63,331l-.59,13.7-3.29-8s.4-13.45-.39-5.69-.79,9.57-.79,9.57L414.49,331l-1.77,12.41-1-12.41-2,15-.49-15-3.16,9.82s1.48-18.1-.2-9.82a71.06,71.06,0,0,0-1.68,12.67L402.44,336l-2.17,14.22-.69-12.93-1.29,5.69-1-11.89-1.48,11.64L395.34,331l-1.29,10.86L393,331l-.6,13.7-.59-13.7L390.7,341.9,389.41,331l-.49,11.64L387.43,331l-1,11.9-1.29-5.69-.69,12.93L382.3,336l-1.78,7.75A71.3,71.3,0,0,0,378.84,331c-1.68-8.27-.2,9.83-.2,9.83L375.48,331,375,346l-2-15-1,12.41L370.25,331l-2.08,9.57s0-1.81-.79-9.57-.39,5.69-.39,5.69l-3.29,8-.59-13.7L362,341.9l-1.28-10.85-.5,11.63-1.48-11.63-1,11.89-1.28-5.69-.69,12.93L353.63,336l-1.78,7.76a71.06,71.06,0,0,0-1.68-12.67c-1.68-8.28-.2,9.82-.2,9.82l-3.16-9.82-.49,15-2-15-1,12.41-1.77-12.41-2.08,9.56s0-1.81-.79-9.56-.39,5.68-.39,5.68l-1,6.34-.59-13.7-1.09,10.86-1.28-10.86L333.83,341l-1.48-11.63-1,11.89-1.29-5.69-.69,12.93-2.17-14.22L325.43,342a71.06,71.06,0,0,0-1.68-12.67c-1.68-8.27-.2,9.82-.2,9.82l-3.16-9.82-.49,15-2-15-1,12.41-1.78-12.41-2.08,9.57s0-1.81-.79-9.57-.4,5.69-.4,5.69l-3.28,8-.6-13.7-1.08,10.86-1.29-10.86L305.15,341l-1.48-11.64-1,11.9-1.28-5.69-.69,12.93-2.18-14.22L296.76,342a71.3,71.3,0,0,0-1.68-12.67c-1.68-8.27-.2,9.83-.2,9.83l-3.16-9.83-.5,15-2-15-1,12.41-1.76-12.42-2.08,9.56s0-1.8-.79-9.56-.4,5.69-.4,5.69l-2.37-5.69" transform="translate(0 0)"/></g></g></g><g class="cls-4"><text class="cls-41" transform="translate(512.61 278.93)">100 %</text></g><g class="cls-4"><text class="cls-41" transform="translate(515.62 322.13)">90 %</text></g><g id="SpO" class="cls-4"><text class="cls-41" transform="translate(33.74 320.85)">S</text><text class="cls-42" transform="translate(37.74 320.85)">p</text><text class="cls-41" transform="translate(41.12 320.85)">O</text></g><path id="Path_140" data-name="Path 140" class="cls-43" d="M47,323l.46-.43c.61-.55.92-.9.92-1.27a.5.5,0,0,0-.48-.52h-.07a1.23,1.23,0,0,0-.62.23l-.15-.33a1.44,1.44,0,0,1,.9-.31.87.87,0,0,1,1,.74v.09c0,.55-.42,1-1,1.45l-.23.2v0H49v.4H47Z" transform="translate(0 0)"/><g class="cls-4"><text class="cls-41" transform="translate(515.47 364.38)">80 %</text></g><g id="Group_21" data-name="Group 21"><g class="cls-2"><g id="Group_20" data-name="Group 20"><line id="Line_32" data-name="Line 32" class="cls-44" x1="508.75" y1="321.1" x2="506.16" y2="321.1"/><line id="Line_33" data-name="Line 33" class="cls-44" x1="52.46" y1="321.61" x2="49.87" y2="321.61"/><line id="Line_34" data-name="Line 34" class="cls-45" x1="502.69" y1="278.17" x2="54.99" y2="278.17"/><line id="Line_35" data-name="Line 35" class="cls-45" x1="502.69" y1="247.23" x2="54.99" y2="247.23"/><line id="Line_36" data-name="Line 36" class="cls-45" x1="502.69" y1="237.74" x2="54.99" y2="237.74"/><line id="Line_37" data-name="Line 37" class="cls-45" x1="502.69" y1="228.26" x2="54.99" y2="228.26"/><line id="Line_38" data-name="Line 38" class="cls-45" x1="502.69" y1="218.84" x2="54.99" y2="218.84"/><line id="Line_39" data-name="Line 39" class="cls-45" x1="502.69" y1="208.63" x2="54.99" y2="208.63"/><line id="Line_40" data-name="Line 40" class="cls-45" x1="502.69" y1="363.83" x2="54.99" y2="363.83"/><line id="Line_41" data-name="Line 41" class="cls-45" x1="502.69" y1="397.06" x2="54.99" y2="397.06"/><line id="Line_42" data-name="Line 42" class="cls-45" x1="502.69" y1="432.84" x2="54.99" y2="432.84"/><line id="Line_43" data-name="Line 43" class="cls-45" x1="502.69" y1="468.41" x2="54.99" y2="468.41"/><line id="Line_44" data-name="Line 44" class="cls-45" x1="502.69" y1="551.14" x2="54.99" y2="551.14"/><line id="Line_45" data-name="Line 45" class="cls-45" x1="502.69" y1="567.25" x2="54.99" y2="567.25"/><line id="Line_46" data-name="Line 46" class="cls-45" x1="502.69" y1="583.36" x2="54.99" y2="583.36"/><line id="Line_47" data-name="Line 47" class="cls-45" x1="502.69" y1="671.71" x2="54.99" y2="671.71"/><line id="Line_48" data-name="Line 48" class="cls-45" x1="502.69" y1="630.17" x2="54.99" y2="630.17"/><line id="Line_49" data-name="Line 49" class="cls-45" x1="502.69" y1="503.97" x2="54.99" y2="503.97"/></g></g></g><g id="_21:00" data-name=" 21:00" class="cls-4"><text class="cls-41" transform="translate(49.24 153.95)">21:</text><text class="cls-46" transform="translate(57.58 153.95)">0</text><text class="cls-41" transform="translate(60.87 153.95)">0</text></g><g id="_22:00" data-name=" 22:00" class="cls-4"><text class="cls-41" transform="translate(82.79 153.95)">22:</text><text class="cls-46" transform="translate(91.13 153.95)">0</text><text class="cls-41" transform="translate(94.42 153.95)">0</text></g><g id="_23:00" data-name=" 23:00" class="cls-4"><text class="cls-47" transform="translate(117.03 153.95)">2</text><text class="cls-41" transform="translate(120.25 153.95)">3:</text><text class="cls-48" transform="translate(125.26 153.95)">0</text><text class="cls-41" transform="translate(128.55 153.95)">0</text></g><g id="_24:00" data-name=" 24:00" class="cls-4"><text class="cls-49" transform="translate(151.38 153.95)">2</text><text class="cls-41" transform="translate(154.4 153.95)">4:</text><text class="cls-48" transform="translate(159.4 153.95)">0</text><text class="cls-41" transform="translate(162.7 153.95)">0</text></g><g id="_01:00" data-name=" 01:00" class="cls-4"><text class="cls-50" transform="translate(186.14 153.95)">0</text><text class="cls-41" transform="translate(189.33 153.95)">1:</text><text class="cls-48" transform="translate(194.33 153.95)">0</text><text class="cls-41" transform="translate(197.63 153.95)">0</text></g><g id="_02:00" data-name=" 02:00" class="cls-4"><text class="cls-51" transform="translate(219.68 153.95)">0</text><text class="cls-41" transform="translate(222.88 153.95)">2:</text><text class="cls-46" transform="translate(227.88 153.95)">0</text><text class="cls-41" transform="translate(231.17 153.95)">0</text></g><g id="_03:00" data-name=" 03:00" class="cls-4"><text class="cls-52" transform="translate(253.83 153.95)">0</text><text class="cls-41" transform="translate(257.06 153.95)">3:</text><text class="cls-46" transform="translate(262.07 153.95)">0</text><text class="cls-41" transform="translate(265.36 153.95)">0</text></g><g id="_04:00" data-name=" 04:00" class="cls-4"><text class="cls-53" transform="translate(288.04 153.95)">0</text><text class="cls-41" transform="translate(291.29 153.95)">4:</text><text class="cls-48" transform="translate(296.29 153.95)">0</text><text class="cls-41" transform="translate(299.59 153.95)">0</text></g><g id="_05:00" data-name=" 05:00" class="cls-4"><text class="cls-52" transform="translate(322.36 153.95)">0</text><text class="cls-41" transform="translate(325.59 153.95)">5:</text><text class="cls-48" transform="translate(330.6 153.95)">0</text><text class="cls-41" transform="translate(333.89 153.95)">0</text></g><g id="_06:00" data-name=" 06:00" class="cls-4"><text class="cls-48" transform="translate(356.51 153.95)">0</text><text class="cls-41" transform="translate(359.8 153.95)">6:</text><text class="cls-48" transform="translate(364.81 153.95)">0</text><text class="cls-41" transform="translate(368.1 153.95)">0</text></g><g id="_07:00" data-name=" 07:00" class="cls-4"><text class="cls-54" transform="translate(391.31 153.95)">0</text><text class="cls-41" transform="translate(394.35 153.95)">7:</text><text class="cls-48" transform="translate(399.36 153.95)">0</text><text class="cls-41" transform="translate(402.65 153.95)">0</text></g><g id="_08:00" data-name=" 08:00" class="cls-4"><text class="cls-55" transform="translate(425.08 153.95)">0</text><text class="cls-41" transform="translate(428.39 153.95)">8:</text><text class="cls-48" transform="translate(433.39 153.95)">0</text><text class="cls-41" transform="translate(436.69 153.95)">0</text></g><g id="_09:00" data-name=" 09:00" class="cls-4"><text class="cls-56" transform="translate(459.3 153.95)">0</text><text class="cls-41" transform="translate(462.58 153.95)">9:</text><text class="cls-48" transform="translate(467.58 153.95)">0</text><text class="cls-41" transform="translate(470.88 153.95)">0</text></g><g id="_10:00" data-name=" 10:00" class="cls-4"><text class="cls-41" transform="translate(494.41 153.95)">10:</text><text class="cls-48" transform="translate(502.75 153.95)">0</text><text class="cls-41" transform="translate(506.04 153.95)">0</text></g><g id="Group_23" data-name="Group 23"><g class="cls-2"><g id="Group_22" data-name="Group 22"><path id="Path_141" data-name="Path 141" class="cls-57" d="M503.87,638.19l-4.73-5s.78,11.72-.79,5-1.58-8.34-1.58-8.34l-4.15,8.34-3.55-10.82-2,10.82-3.95-13.07-1,13.07-6.32-8.57s3,15.78-.4,8.57-3.35-11.05-3.35-11.05l-3.56,6.76-4.34-12.39-1.38,11.27-2.57-5-2,10.37-3-10.14-1,10.14-2.56-9.47-2.17,9.47-1.19-11.94-6.57,7s.79,11.72-.79,5-1.58-8.34-1.58-8.34l-4.15,8.34-3.55-10.82-2,10.81-3.95-13.06-1,13.06-6.32-8.56s3,15.77-.39,8.56-3.36-11-3.36-11l-3.55,6.76-4.35-12.39-1.38,11.27-2.56-5-2,10.37-3-10.14-1,10.14-2.56-9.47-2.18,9.47-1.18-11.94L389,631.77s.78,11.71-.79,5-1.58-8.33-1.58-8.33l-4.15,8.33L379,625.91l-2,10.81-4-13.07-1,13.07-6.32-8.56s3,15.77-.4,8.56-3.35-11-3.35-11l-3.56,6.76-4.34-12.39-1.38,11.27-2.57-5-2,10.36-3-10.14-1,10.14-2.57-9.46-2.17,9.46-1.19-11.94-6.57,7s.79,11.72-.79,5-1.58-8.34-1.58-8.34l-4.14,8.34-3.56-10.81-2,10.81-4-13.07-1,13.07-6.31-8.56s3,15.77-.4,8.56-3.36-11-3.36-11l-3.55,6.76-4.35-12.39-1.38,11.26-2.56-4.95-2,10.36-3-10.14-1,10.14-2.57-9.46-2.17,9.46L281,624.78l-1.18,11.94-2.17-9.46L275,636.72l-1-10.14-3,10.14-2-10.36-2.57,4.95-1.38-11.26-4.34,12.39-3.55-6.76s0,3.83-3.36,11-.4-8.56-.4-8.56l-6.31,8.56-1-13.07-4,13.07-2-10.82-3.56,10.82-4.14-8.34s0,1.58-1.58,8.34-.79-5-.79-5l-6.58-7-1.18,11.94-2.17-9.46-2.57,9.46-1-10.14-3,10.14-2-10.37-2.57,5L207.85,620l-4.34,12.4L200,625.68s0,3.83-3.36,11-.39-8.56-.39-8.56l-6.32,8.56-1-13.07-4,13.07-2-10.82-3.56,10.82-4.14-8.34s0,1.58-1.58,8.34-.79-5-.79-5l-2.07-5.52-1.18,11.94-2.17-9.46-2.57,9.46-1-10.14-3,10.14-2-10.36-2.57,5-1.38-11.27-4.35,12.4-3.55-6.76s0,3.83-3.35,11-.4-8.57-.4-8.57l-6.32,8.57-1-13.07-3.94,13.07-2-10.82-3.55,10.82-4.15-8.34s0,1.58-1.58,8.34-.79-5-.79-5l-6.57-7-1.18,12-2.18-9.47-2.56,9.47-1-10.14-3,10.14-2-10.37-2.56,5-1.39-11.27L93.39,633.9l-3.55-6.76s0,3.83-3.36,11-.39-8.56-.39-8.56l-6.32,8.56-1-13.06-4,13.06-2-10.81L69.3,638.18l-4.14-8.33s0,1.58-1.58,8.33-.79-4.95-.79-4.95l-4.74,4.95" transform="translate(0 0)"/><path id="Path_142" data-name="Path 142" class="cls-57" d="M58.05,677.4l4.74-3.52s-.79,8.32.79,3.52,1.58-5.92,1.58-5.92l4.15,5.92,3.55-7.68,2,7.68,4-9.27,1,9.27,6.32-6.07s-3,11.2.4,6.07,3.35-7.83,3.35-7.83l3.56,4.8,4.34-8.8,1.38,8,2.57-3.52,2,7.35,3-7.2,1,7.2,2.56-6.71,2.17,6.71,1.19-8.47,6.57,5s-.79,8.31.79,3.51,1.58-5.91,1.58-5.91l4.15,5.91,3.55-7.67,2,7.67,3.95-9.27,1,9.27,6.32-6.07s-3,11.2.39,6.07,3.36-7.83,3.36-7.83l3.55,4.8,4.35-8.8,1.38,8,2.57-3.52,2,7.36,3-7.2,1,7.2,2.57-6.72,2.17,6.72,1.18-8.48,2.07,3.92s-.79,8.32.79,3.52,1.57-5.92,1.57-5.92l4.15,5.92,3.55-7.68,2,7.68,3.95-9.28,1,9.28,6.32-6.08s-3,11.2.4,6.08,3.35-7.84,3.35-7.84l3.56,4.8,4.34-8.8,1.38,8,2.57-3.52,2,7.36,3-7.2,1,7.2,2.57-6.72,2.17,6.72,1.19-8.48,6.57,5s-.79,8.32.79,3.52,1.58-5.92,1.58-5.92l4.14,5.92,3.56-7.68,2,7.68,3.95-9.28,1,9.28,6.32-6.08s-3,11.2.4,6.08,3.35-7.84,3.35-7.84l3.56,4.8,4.34-8.8,1.38,8,2.57-3.52,2,7.36,3-7.2,1,7.2,2.57-6.72,2.17,6.72,1.19-8.48,1.18,8.48,2.17-6.72,2.57,6.72,1-7.2,3,7.2,2-7.37,2.57,3.52,1.38-8,4.34,8.8,3.56-4.8s0,2.72,3.35,7.84.4-6.08.4-6.08l6.32,6.08,1-9.28,4,9.28,2-7.68,3.55,7.68,4.15-5.92s0,1.12,1.58,5.92.78-3.52.78-3.52l6.58-5,1.18,8.48,2.17-6.72,2.57,6.72,1-7.2,3,7.2,2-7.36,2.57,3.52,1.38-8,4.35,8.8,3.55-4.8s0,2.72,3.36,7.84.39-6.08.39-6.08l6.32,6.08,1-9.28,4,9.28,2-7.68,3.55,7.68,4.15-5.92s0,1.12,1.58,5.92.79-3.52.79-3.52l2.06-3.92,1.19,8.48,2.17-6.72L397,677.4l1-7.2,3,7.2,2-7.36,2.57,3.52,1.38-8,4.34,8.8,3.56-4.8s0,2.72,3.35,7.84.4-6.08.4-6.08l6.31,6.08,1-9.28,3.95,9.28,2-7.68,3.56,7.68,4.15-5.92s0,1.12,1.58,5.92.79-3.52.79-3.52l6.57-5,1.18,8.47,2.18-6.71,2.56,6.71,1-7.2,3,7.2,2-7.35,2.57,3.52,1.38-8,4.35,8.8,3.55-4.8s0,2.72,3.36,7.84.39-6.08.39-6.08l6.32,6.08,1-9.28,3.94,9.28,2-7.68,3.55,7.68,4.15-5.92s0,1.12,1.58,5.92.79-3.52.79-3.52l4.74,3.52" transform="translate(0 0)"/><line id="Line_50" data-name="Line 50" class="cls-58" x1="85.47" y1="394.41" x2="85.47" y2="399.5"/><line id="Line_51" data-name="Line 51" class="cls-59" x1="85.47" y1="501.43" x2="85.47" y2="506.52"/><line id="Line_52" data-name="Line 52" class="cls-59" x1="91.68" y1="501.43" x2="91.68" y2="506.52"/><line id="Line_53" data-name="Line 53" class="cls-59" x1="97.88" y1="501.43" x2="97.88" y2="506.52"/><line id="Line_54" data-name="Line 54" class="cls-59" x1="104.07" y1="501.43" x2="104.07" y2="506.52"/><line id="Line_55" data-name="Line 55" class="cls-59" x1="110.28" y1="501.43" x2="110.28" y2="506.52"/><line id="Line_56" data-name="Line 56" class="cls-59" x1="116.48" y1="501.43" x2="116.48" y2="506.52"/><line id="Line_57" data-name="Line 57" class="cls-59" x1="122.68" y1="501.43" x2="122.68" y2="506.52"/><line id="Line_58" data-name="Line 58" class="cls-59" x1="128.88" y1="501.43" x2="128.88" y2="506.52"/><line id="Line_59" data-name="Line 59" class="cls-59" x1="135.08" y1="501.43" x2="135.08" y2="506.52"/><line id="Line_60" data-name="Line 60" class="cls-59" x1="141.28" y1="501.43" x2="141.28" y2="506.52"/><line id="Line_61" data-name="Line 61" class="cls-59" x1="147.48" y1="501.43" x2="147.48" y2="506.52"/><line id="Line_62" data-name="Line 62" class="cls-59" x1="153.68" y1="501.43" x2="153.68" y2="506.52"/><line id="Line_63" data-name="Line 63" class="cls-60" x1="116.48" y1="465.86" x2="116.48" y2="470.95"/><line id="Line_64" data-name="Line 64" class="cls-60" x1="122.68" y1="465.86" x2="122.68" y2="470.95"/><line id="Line_65" data-name="Line 65" class="cls-60" x1="128.88" y1="465.86" x2="128.88" y2="470.95"/><line id="Line_66" data-name="Line 66" class="cls-60" x1="135.08" y1="465.86" x2="135.08" y2="470.95"/><line id="Line_67" data-name="Line 67" class="cls-60" x1="218.78" y1="465.86" x2="218.78" y2="470.95"/><line id="Line_68" data-name="Line 68" class="cls-60" x1="224.98" y1="465.86" x2="224.98" y2="470.95"/><line id="Line_69" data-name="Line 69" class="cls-60" x1="231.18" y1="465.86" x2="231.18" y2="470.95"/><line id="Line_70" data-name="Line 70" class="cls-60" x1="237.38" y1="465.86" x2="237.38" y2="470.95"/><line id="Line_71" data-name="Line 71" class="cls-60" x1="279.78" y1="465.86" x2="279.78" y2="470.95"/><line id="Line_72" data-name="Line 72" class="cls-60" x1="285.98" y1="465.86" x2="285.98" y2="470.95"/><line id="Line_73" data-name="Line 73" class="cls-60" x1="292.18" y1="465.86" x2="292.18" y2="470.95"/><line id="Line_74" data-name="Line 74" class="cls-60" x1="298.38" y1="465.86" x2="298.38" y2="470.95"/><line id="Line_75" data-name="Line 75" class="cls-60" x1="332.94" y1="465.86" x2="332.94" y2="470.95"/><line id="Line_76" data-name="Line 76" class="cls-60" x1="339.14" y1="465.86" x2="339.14" y2="470.95"/><line id="Line_77" data-name="Line 77" class="cls-60" x1="345.34" y1="465.86" x2="345.34" y2="470.95"/><line id="Line_78" data-name="Line 78" class="cls-60" x1="351.54" y1="465.86" x2="351.54" y2="470.95"/><line id="Line_79" data-name="Line 79" class="cls-60" x1="379.98" y1="465.86" x2="379.98" y2="470.95"/><line id="Line_80" data-name="Line 80" class="cls-60" x1="386.19" y1="465.86" x2="386.19" y2="470.95"/><line id="Line_81" data-name="Line 81" class="cls-60" x1="392.39" y1="465.86" x2="392.39" y2="470.95"/><line id="Line_82" data-name="Line 82" class="cls-60" x1="398.59" y1="465.86" x2="398.59" y2="470.95"/><line id="Line_83" data-name="Line 83" class="cls-60" x1="450.47" y1="465.86" x2="450.47" y2="470.95"/><line id="Line_84" data-name="Line 84" class="cls-60" x1="456.67" y1="465.86" x2="456.67" y2="470.95"/><line id="Line_85" data-name="Line 85" class="cls-60" x1="462.87" y1="465.86" x2="462.87" y2="470.95"/><line id="Line_86" data-name="Line 86" class="cls-60" x1="469.07" y1="465.86" x2="469.07" y2="470.95"/><line id="Line_87" data-name="Line 87" class="cls-60" x1="424.88" y1="465.86" x2="424.88" y2="470.95"/><line id="Line_88" data-name="Line 88" class="cls-60" x1="153.68" y1="465.86" x2="153.68" y2="470.95"/><line id="Line_89" data-name="Line 89" class="cls-59" x1="159.88" y1="501.43" x2="159.88" y2="506.52"/><line id="Line_90" data-name="Line 90" class="cls-59" x1="166.08" y1="501.43" x2="166.08" y2="506.52"/><line id="Line_91" data-name="Line 91" class="cls-59" x1="172.28" y1="501.43" x2="172.28" y2="506.52"/><line id="Line_92" data-name="Line 92" class="cls-59" x1="178.48" y1="501.43" x2="178.48" y2="506.52"/><line id="Line_93" data-name="Line 93" class="cls-59" x1="184.68" y1="501.43" x2="184.68" y2="506.52"/><line id="Line_94" data-name="Line 94" class="cls-59" x1="190.88" y1="501.43" x2="190.88" y2="506.52"/><line id="Line_95" data-name="Line 95" class="cls-59" x1="197.08" y1="501.43" x2="197.08" y2="506.52"/><line id="Line_96" data-name="Line 96" class="cls-59" x1="203.28" y1="501.43" x2="203.28" y2="506.52"/><line id="Line_97" data-name="Line 97" class="cls-59" x1="209.48" y1="501.43" x2="209.48" y2="506.52"/><line id="Line_98" data-name="Line 98" class="cls-59" x1="215.68" y1="501.43" x2="215.68" y2="506.52"/><line id="Line_99" data-name="Line 99" class="cls-59" x1="221.88" y1="501.43" x2="221.88" y2="506.52"/><line id="Line_100" data-name="Line 100" class="cls-59" x1="228.08" y1="501.43" x2="228.08" y2="506.52"/><line id="Line_101" data-name="Line 101" class="cls-59" x1="234.28" y1="501.43" x2="234.28" y2="506.52"/><line id="Line_102" data-name="Line 102" class="cls-59" x1="240.48" y1="501.43" x2="240.48" y2="506.52"/><line id="Line_103" data-name="Line 103" class="cls-59" x1="246.68" y1="501.43" x2="246.68" y2="506.52"/><line id="Line_104" data-name="Line 104" class="cls-59" x1="252.88" y1="501.43" x2="252.88" y2="506.52"/><line id="Line_105" data-name="Line 105" class="cls-59" x1="259.08" y1="501.43" x2="259.08" y2="506.52"/><line id="Line_106" data-name="Line 106" class="cls-59" x1="265.28" y1="501.43" x2="265.28" y2="506.52"/><line id="Line_107" data-name="Line 107" class="cls-59" x1="271.48" y1="501.43" x2="271.48" y2="506.52"/><line id="Line_108" data-name="Line 108" class="cls-59" x1="277.68" y1="501.43" x2="277.68" y2="506.52"/><line id="Line_109" data-name="Line 109" class="cls-59" x1="283.88" y1="501.43" x2="283.88" y2="506.52"/><line id="Line_110" data-name="Line 110" class="cls-59" x1="290.08" y1="501.43" x2="290.08" y2="506.52"/><line id="Line_111" data-name="Line 111" class="cls-59" x1="296.28" y1="501.43" x2="296.28" y2="506.52"/><line id="Line_112" data-name="Line 112" class="cls-59" x1="302.48" y1="501.43" x2="302.48" y2="506.52"/><line id="Line_113" data-name="Line 113" class="cls-59" x1="308.68" y1="501.43" x2="308.68" y2="506.52"/><line id="Line_114" data-name="Line 114" class="cls-59" x1="314.88" y1="501.43" x2="314.88" y2="506.52"/><line id="Line_115" data-name="Line 115" class="cls-59" x1="321.08" y1="501.43" x2="321.08" y2="506.52"/><line id="Line_116" data-name="Line 116" class="cls-59" x1="327.28" y1="501.43" x2="327.28" y2="506.52"/><line id="Line_117" data-name="Line 117" class="cls-59" x1="333.48" y1="501.43" x2="333.48" y2="506.52"/><line id="Line_118" data-name="Line 118" class="cls-59" x1="339.68" y1="501.43" x2="339.68" y2="506.52"/><line id="Line_119" data-name="Line 119" class="cls-59" x1="345.88" y1="501.43" x2="345.88" y2="506.52"/><line id="Line_120" data-name="Line 120" class="cls-59" x1="352.08" y1="501.43" x2="352.08" y2="506.52"/><line id="Line_121" data-name="Line 121" class="cls-59" x1="358.28" y1="501.43" x2="358.28" y2="506.52"/><line id="Line_122" data-name="Line 122" class="cls-59" x1="364.48" y1="501.43" x2="364.48" y2="506.52"/><line id="Line_123" data-name="Line 123" class="cls-59" x1="370.68" y1="501.43" x2="370.68" y2="506.52"/><line id="Line_124" data-name="Line 124" class="cls-59" x1="376.89" y1="501.43" x2="376.89" y2="506.52"/><line id="Line_125" data-name="Line 125" class="cls-59" x1="383.08" y1="501.43" x2="383.08" y2="506.52"/><line id="Line_126" data-name="Line 126" class="cls-59" x1="389.29" y1="501.43" x2="389.29" y2="506.52"/><line id="Line_127" data-name="Line 127" class="cls-59" x1="395.49" y1="501.43" x2="395.49" y2="506.52"/><line id="Line_128" data-name="Line 128" class="cls-59" x1="401.69" y1="501.43" x2="401.69" y2="506.52"/><line id="Line_129" data-name="Line 129" class="cls-59" x1="407.89" y1="501.43" x2="407.89" y2="506.52"/><line id="Line_130" data-name="Line 130" class="cls-59" x1="414.09" y1="501.43" x2="414.09" y2="506.52"/><line id="Line_131" data-name="Line 131" class="cls-59" x1="420.29" y1="501.43" x2="420.29" y2="506.52"/><line id="Line_132" data-name="Line 132" class="cls-59" x1="426.49" y1="501.43" x2="426.49" y2="506.52"/><line id="Line_133" data-name="Line 133" class="cls-59" x1="432.69" y1="501.43" x2="432.69" y2="506.52"/><line id="Line_134" data-name="Line 134" class="cls-59" x1="438.89" y1="501.43" x2="438.89" y2="506.52"/><line id="Line_135" data-name="Line 135" class="cls-59" x1="445.09" y1="501.43" x2="445.09" y2="506.52"/><line id="Line_136" data-name="Line 136" class="cls-59" x1="451.29" y1="501.43" x2="451.29" y2="506.52"/><line id="Line_137" data-name="Line 137" class="cls-59" x1="457.49" y1="501.43" x2="457.49" y2="506.52"/><line id="Line_138" data-name="Line 138" class="cls-59" x1="463.69" y1="501.43" x2="463.69" y2="506.52"/><line id="Line_139" data-name="Line 139" class="cls-59" x1="469.89" y1="501.43" x2="469.89" y2="506.52"/><line id="Line_140" data-name="Line 140" class="cls-59" x1="476.09" y1="501.43" x2="476.09" y2="506.52"/><line id="Line_141" data-name="Line 141" class="cls-59" x1="482.29" y1="501.43" x2="482.29" y2="506.52"/><line id="Line_142" data-name="Line 142" class="cls-59" x1="488.49" y1="501.43" x2="488.49" y2="506.52"/><line id="Line_143" data-name="Line 143" class="cls-59" x1="77.28" y1="501.43" x2="77.28" y2="506.52"/><line id="Line_144" data-name="Line 144" class="cls-59" x1="70.93" y1="501.43" x2="70.93" y2="506.52"/><line id="Line_145" data-name="Line 145" class="cls-58" x1="90.05" y1="394.41" x2="90.05" y2="399.5"/><line id="Line_146" data-name="Line 146" class="cls-58" x1="93.2" y1="394.41" x2="93.2" y2="399.5"/><line id="Line_147" data-name="Line 147" class="cls-58" x1="97.77" y1="394.41" x2="97.77" y2="399.5"/><line id="Line_148" data-name="Line 148" class="cls-58" x1="101.7" y1="394.41" x2="101.7" y2="399.5"/><line id="Line_149" data-name="Line 149" class="cls-58" x1="107.75" y1="394.41" x2="107.75" y2="399.5"/><line id="Line_150" data-name="Line 150" class="cls-58" x1="113.8" y1="394.41" x2="113.8" y2="399.5"/><line id="Line_151" data-name="Line 151" class="cls-58" x1="119.84" y1="394.41" x2="119.84" y2="399.5"/><line id="Line_152" data-name="Line 152" class="cls-58" x1="125.89" y1="394.41" x2="125.89" y2="399.5"/><line id="Line_153" data-name="Line 153" class="cls-61" x1="99.71" y1="430.3" x2="99.71" y2="435.39"/><line id="Line_154" data-name="Line 154" class="cls-61" x1="105.76" y1="430.3" x2="105.76" y2="435.39"/><line id="Line_155" data-name="Line 155" class="cls-61" x1="134.71" y1="430.3" x2="134.71" y2="435.39"/><line id="Line_156" data-name="Line 156" class="cls-61" x1="151.3" y1="430.3" x2="151.3" y2="435.39"/><line id="Line_157" data-name="Line 157" class="cls-61" x1="258.32" y1="430.3" x2="258.32" y2="435.39"/><line id="Line_158" data-name="Line 158" class="cls-61" x1="281.62" y1="430.3" x2="281.62" y2="435.39"/><line id="Line_159" data-name="Line 159" class="cls-61" x1="346.46" y1="430.3" x2="346.46" y2="435.39"/><line id="Line_160" data-name="Line 160" class="cls-61" x1="368.9" y1="430.3" x2="368.9" y2="435.39"/><line id="Line_161" data-name="Line 161" class="cls-61" x1="392.65" y1="430.3" x2="392.65" y2="435.39"/><line id="Line_162" data-name="Line 162" class="cls-61" x1="419.09" y1="430.3" x2="419.09" y2="435.39"/><line id="Line_163" data-name="Line 163" class="cls-61" x1="438.46" y1="430.3" x2="438.46" y2="435.39"/><line id="Line_164" data-name="Line 164" class="cls-61" x1="462.62" y1="430.3" x2="462.62" y2="435.39"/><line id="Line_165" data-name="Line 165" class="cls-61" x1="470.34" y1="430.3" x2="470.34" y2="435.39"/><line id="Line_166" data-name="Line 166" class="cls-61" x1="476.17" y1="430.3" x2="476.17" y2="435.39"/><line id="Line_167" data-name="Line 167" class="cls-61" x1="483.15" y1="430.3" x2="483.15" y2="435.39"/><line id="Line_168" data-name="Line 168" class="cls-58" x1="188.54" y1="394.41" x2="188.54" y2="399.5"/><line id="Line_169" data-name="Line 169" class="cls-58" x1="193.12" y1="394.41" x2="193.12" y2="399.5"/><line id="Line_170" data-name="Line 170" class="cls-58" x1="196.27" y1="394.41" x2="196.27" y2="399.5"/><line id="Line_171" data-name="Line 171" class="cls-58" x1="200.84" y1="394.41" x2="200.84" y2="399.5"/><line id="Line_172" data-name="Line 172" class="cls-58" x1="204.77" y1="394.41" x2="204.77" y2="399.5"/><line id="Line_173" data-name="Line 173" class="cls-58" x1="210.82" y1="394.41" x2="210.82" y2="399.5"/><line id="Line_174" data-name="Line 174" class="cls-58" x1="216.87" y1="394.41" x2="216.87" y2="399.5"/><line id="Line_175" data-name="Line 175" class="cls-58" x1="222.91" y1="394.41" x2="222.91" y2="399.5"/><line id="Line_176" data-name="Line 176" class="cls-58" x1="228.96" y1="394.41" x2="228.96" y2="399.5"/><line id="Line_177" data-name="Line 177" class="cls-58" x1="233.32" y1="394.41" x2="233.32" y2="399.5"/><line id="Line_178" data-name="Line 178" class="cls-58" x1="239.37" y1="394.41" x2="239.37" y2="399.5"/><line id="Line_179" data-name="Line 179" class="cls-58" x1="245.42" y1="394.41" x2="245.42" y2="399.5"/><line id="Line_180" data-name="Line 180" class="cls-58" x1="251.46" y1="394.41" x2="251.46" y2="399.5"/><line id="Line_181" data-name="Line 181" class="cls-58" x1="257.51" y1="394.41" x2="257.51" y2="399.5"/><line id="Line_182" data-name="Line 182" class="cls-58" x1="290.66" y1="394.41" x2="290.66" y2="399.5"/><line id="Line_183" data-name="Line 183" class="cls-58" x1="295.23" y1="394.41" x2="295.23" y2="399.5"/><line id="Line_184" data-name="Line 184" class="cls-58" x1="298.38" y1="394.41" x2="298.38" y2="399.5"/><line id="Line_185" data-name="Line 185" class="cls-58" x1="302.95" y1="394.41" x2="302.95" y2="399.5"/><line id="Line_186" data-name="Line 186" class="cls-58" x1="306.88" y1="394.41" x2="306.88" y2="399.5"/><line id="Line_187" data-name="Line 187" class="cls-58" x1="312.93" y1="394.41" x2="312.93" y2="399.5"/><line id="Line_188" data-name="Line 188" class="cls-58" x1="318.98" y1="394.41" x2="318.98" y2="399.5"/><line id="Line_189" data-name="Line 189" class="cls-58" x1="325.02" y1="394.41" x2="325.02" y2="399.5"/><line id="Line_190" data-name="Line 190" class="cls-58" x1="331.07" y1="394.41" x2="331.07" y2="399.5"/><line id="Line_191" data-name="Line 191" class="cls-58" x1="335.44" y1="394.41" x2="335.44" y2="399.5"/><line id="Line_192" data-name="Line 192" class="cls-58" x1="370.38" y1="394.41" x2="370.38" y2="399.5"/><line id="Line_193" data-name="Line 193" class="cls-58" x1="374.95" y1="394.41" x2="374.95" y2="399.5"/><line id="Line_194" data-name="Line 194" class="cls-58" x1="378.1" y1="394.41" x2="378.1" y2="399.5"/><line id="Line_195" data-name="Line 195" class="cls-58" x1="382.67" y1="394.41" x2="382.67" y2="399.5"/><line id="Line_196" data-name="Line 196" class="cls-58" x1="386.6" y1="394.41" x2="386.6" y2="399.5"/><line id="Line_197" data-name="Line 197" class="cls-58" x1="392.65" y1="394.41" x2="392.65" y2="399.5"/><line id="Line_198" data-name="Line 198" class="cls-58" x1="399.45" y1="394.41" x2="399.45" y2="399.5"/><line id="Line_199" data-name="Line 199" class="cls-58" x1="404.02" y1="394.41" x2="404.02" y2="399.5"/><line id="Line_200" data-name="Line 200" class="cls-58" x1="407.17" y1="394.41" x2="407.17" y2="399.5"/><line id="Line_201" data-name="Line 201" class="cls-58" x1="411.74" y1="394.41" x2="411.74" y2="399.5"/><line id="Line_202" data-name="Line 202" class="cls-58" x1="415.67" y1="394.41" x2="415.67" y2="399.5"/><line id="Line_203" data-name="Line 203" class="cls-58" x1="421.72" y1="394.41" x2="421.72" y2="399.5"/><line id="Line_204" data-name="Line 204" class="cls-58" x1="435.18" y1="394.41" x2="435.18" y2="399.5"/><line id="Line_205" data-name="Line 205" class="cls-58" x1="439.75" y1="394.41" x2="439.75" y2="399.5"/><line id="Line_206" data-name="Line 206" class="cls-58" x1="442.9" y1="394.41" x2="442.9" y2="399.5"/><line id="Line_207" data-name="Line 207" class="cls-58" x1="447.47" y1="394.41" x2="447.47" y2="399.5"/><line id="Line_208" data-name="Line 208" class="cls-58" x1="451.41" y1="394.41" x2="451.41" y2="399.5"/><line id="Line_209" data-name="Line 209" class="cls-58" x1="457.45" y1="394.41" x2="457.45" y2="399.5"/><line id="Line_210" data-name="Line 210" class="cls-58" x1="462.62" y1="394.41" x2="462.62" y2="399.5"/><line id="Line_211" data-name="Line 211" class="cls-58" x1="467.19" y1="394.41" x2="467.19" y2="399.5"/><line id="Line_212" data-name="Line 212" class="cls-58" x1="470.34" y1="394.41" x2="470.34" y2="399.5"/><line id="Line_213" data-name="Line 213" class="cls-58" x1="474.91" y1="394.41" x2="474.91" y2="399.5"/><line id="Line_214" data-name="Line 214" class="cls-58" x1="478.84" y1="394.41" x2="478.84" y2="399.5"/><line id="Line_215" data-name="Line 215" class="cls-58" x1="484.89" y1="394.41" x2="484.89" y2="399.5"/><line id="Line_216" data-name="Line 216" class="cls-62" x1="58.61" y1="551.14" x2="147.48" y2="551.14"/><path id="Path_143" data-name="Path 143" class="cls-58" d="M168.3,568.91H150.54l-1.38-17.77" transform="translate(0 0)"/><path id="Path_144" data-name="Path 144" class="cls-61" d="M169.76,565.58l1.38,17.78h33.14l2.17-32.22" transform="translate(0 0)"/><line id="Line_217" data-name="Line 217" class="cls-62" x1="206.45" y1="551.14" x2="295.32" y2="551.14"/><path id="Path_145" data-name="Path 145" class="cls-58" d="M316.14,568.91H298.38L297,551.14" transform="translate(0 0)"/><path id="Path_146" data-name="Path 146" class="cls-61" d="M317.6,565.58,319,583.36h33.14l2.17-32.22" transform="translate(0 0)"/><line id="Line_218" data-name="Line 218" class="cls-62" x1="354.09" y1="551.14" x2="442.96" y2="551.14"/><path id="Path_147" data-name="Path 147" class="cls-58" d="M506.16,570.37,446,568.91l-1.38-17.77" transform="translate(0 0)"/></g></g></g><g id="ApObst" class="cls-4"><text class="cls-63" transform="translate(25.66 398.16)">A</text><text class="cls-42" transform="translate(29.69 398.16)">p</text><text class="cls-41" transform="translate(33.07 398.16)">Ob</text><text class="cls-64" transform="translate(41.08 398.16)">s</text><text class="cls-41" transform="translate(44.07 398.16)">t</text></g><g id="ApC" class="cls-4"><text class="cls-65" transform="translate(36.3 434.04)">A</text><text class="cls-42" transform="translate(40.34 434.04)">p</text><text class="cls-41" transform="translate(43.73 434.04)">C</text></g><g id="ApM" class="cls-4"><text class="cls-63" transform="translate(35.14 469.33)">A</text><text class="cls-41" transform="translate(39.17 469.33)">pM</text></g><g id="Hy" class="cls-4"><text class="cls-41" transform="translate(40.75 505.94)">Hy</text></g><g id="Pos" class="cls-4"><text class="cls-66" transform="translate(37.16 406.06)">P</text><text class="cls-41" transform="translate(41.13 406.06)">os</text></g><g id="D" class="cls-4"><text class="cls-67" transform="translate(40.7 551.61)">D</text></g><g id="G" class="cls-4"><text class="cls-67" transform="translate(40.78 566.05)">G</text></g><g id="V" class="cls-4"><text class="cls-67" transform="translate(41.03 581.02)">V</text></g><g id="Reflex" class="cls-4"><text class="cls-41" transform="translate(30.1 631.75)">Refl</text><text class="cls-46" transform="translate(40.77 631.75)">e</text><text class="cls-41" transform="translate(44.06 631.75)">x</text></g><g id="Ronflement" class="cls-4"><text class="cls-41" transform="translate(12.65 673.29)">Ronfleme</text><text class="cls-68" transform="translate(38.33 673.29)">n</text><text class="cls-41" transform="translate(41.65 673.29)">t</text></g><g id="Group_67" data-name="Group 67"><g class="cls-2"><g id="Group_66" data-name="Group 66"><g id="Group_26" data-name="Group 26"><g id="Group_25" data-name="Group 25"><g class="cls-69"><g id="Group_24" data-name="Group 24"><line id="Line_219" data-name="Line 219" class="cls-70" x1="58.05" y1="710.71" x2="58.05" y2="159.63"/></g></g></g></g><g id="Group_29" data-name="Group 29"><g id="Group_28" data-name="Group 28"><g class="cls-71"><g id="Group_27" data-name="Group 27"><line id="Line_220" data-name="Line 220" class="cls-70" x1="92.32" y1="710.71" x2="92.32" y2="159.63"/></g></g></g></g><g id="Group_32" data-name="Group 32"><g id="Group_31" data-name="Group 31"><g class="cls-72"><g id="Group_30" data-name="Group 30"><line id="Line_221" data-name="Line 221" class="cls-70" x1="126.58" y1="710.71" x2="126.58" y2="159.62"/></g></g></g></g><g id="Group_35" data-name="Group 35"><g id="Group_34" data-name="Group 34"><g class="cls-73"><g id="Group_33" data-name="Group 33"><line id="Line_222" data-name="Line 222" class="cls-70" x1="160.84" y1="710.7" x2="160.84" y2="159.62"/></g></g></g></g><g id="Group_38" data-name="Group 38"><g id="Group_37" data-name="Group 37"><g class="cls-74"><g id="Group_36" data-name="Group 36"><line id="Line_223" data-name="Line 223" class="cls-70" x1="195.1" y1="710.7" x2="195.1" y2="159.62"/></g></g></g></g><g id="Group_41" data-name="Group 41"><g id="Group_40" data-name="Group 40"><g class="cls-75"><g id="Group_39" data-name="Group 39"><line id="Line_224" data-name="Line 224" class="cls-70" x1="229.37" y1="710.7" x2="229.37" y2="159.62"/></g></g></g></g><g id="Group_44" data-name="Group 44"><g id="Group_43" data-name="Group 43"><g class="cls-76"><g id="Group_42" data-name="Group 42"><line id="Line_225" data-name="Line 225" class="cls-70" x1="263.63" y1="710.7" x2="263.63" y2="159.62"/></g></g></g></g><g id="Group_47" data-name="Group 47"><g id="Group_46" data-name="Group 46"><g class="cls-77"><g id="Group_45" data-name="Group 45"><line id="Line_226" data-name="Line 226" class="cls-70" x1="297.89" y1="710.7" x2="297.89" y2="159.61"/></g></g></g></g><g id="Group_50" data-name="Group 50"><g id="Group_49" data-name="Group 49"><g class="cls-78"><g id="Group_48" data-name="Group 48"><line id="Line_227" data-name="Line 227" class="cls-70" x1="332.15" y1="710.7" x2="332.15" y2="159.61"/></g></g></g></g><g id="Group_53" data-name="Group 53"><g id="Group_52" data-name="Group 52"><g class="cls-79"><g id="Group_51" data-name="Group 51"><line id="Line_228" data-name="Line 228" class="cls-70" x1="366.42" y1="710.69" x2="366.42" y2="159.61"/></g></g></g></g><g id="Group_56" data-name="Group 56"><g id="Group_55" data-name="Group 55"><g class="cls-80"><g id="Group_54" data-name="Group 54"><line id="Line_229" data-name="Line 229" class="cls-70" x1="400.68" y1="710.69" x2="400.68" y2="159.61"/></g></g></g></g><g id="Group_59" data-name="Group 59"><g id="Group_58" data-name="Group 58"><g class="cls-81"><g id="Group_57" data-name="Group 57"><line id="Line_230" data-name="Line 230" class="cls-70" x1="434.94" y1="710.69" x2="434.94" y2="159.61"/></g></g></g></g><g id="Group_62" data-name="Group 62"><g id="Group_61" data-name="Group 61"><g class="cls-82"><g id="Group_60" data-name="Group 60"><line id="Line_231" data-name="Line 231" class="cls-70" x1="469.2" y1="710.69" x2="469.2" y2="159.6"/></g></g></g></g><g id="Group_65" data-name="Group 65"><g id="Group_64" data-name="Group 64"><g class="cls-83"><g id="Group_63" data-name="Group 63"><line id="Line_232" data-name="Line 232" class="cls-70" x1="503.47" y1="710.69" x2="503.47" y2="159.6"/></g></g></g></g><path id="Path_148" data-name="Path 148" class="cls-84" d="M59.23,208.63h43.36l3.71,8.76h5.9l6.74,29.83h30.62l6.34-19.3H161l3.87-11.5h7.25l1.26-7.8h13.43l6,19.3h5.12l4.6,12.51h8.25l2.27,6.79h47.19l9.91-39.32h17.92l5.44,20h5.34l4.9,12.5H314l5.65-33.26h4l2.31,33.26h7.4l5.4-24.72h18.76l5.69,18.41h106l9.64-27.29h24.62" transform="translate(0 0)"/></g></g></g><g id="Eveil" class="cls-4"><text class="cls-56" transform="translate(33.89 209.46)">E</text><text class="cls-85" transform="translate(37.83 209.46)">v</text><text class="cls-41" transform="translate(40.79 209.46)">eil</text></g><g id="REM" class="cls-4"><text class="cls-41" transform="translate(34.83 218.95)">REM</text></g><g id="N1" class="cls-4"><text class="cls-41" transform="translate(41.1 228.42)">N1</text></g><g id="N2" class="cls-4"><text class="cls-41" transform="translate(40.02 237.9)">N2</text></g><g id="N3" class="cls-4"><text class="cls-41" transform="translate(39.94 247.38)">N3</text></g><g id="Group_69" data-name="Group 69"><g class="cls-2"><g id="Group_68" data-name="Group 68"><line id="Line_233" data-name="Line 233" class="cls-86" x1="59.23" y1="208.63" x2="102.6" y2="208.63"/><line id="Line_234" data-name="Line 234" class="cls-86" x1="173.42" y1="208.63" x2="186.83" y2="208.63"/><line id="Line_235" data-name="Line 235" class="cls-86" x1="269.79" y1="207.9" x2="288.05" y2="207.9"/><line id="Line_236" data-name="Line 236" class="cls-86" x1="319.58" y1="207.22" x2="323.59" y2="207.18"/><line id="Line_237" data-name="Line 237" class="cls-86" x1="478.53" y1="206.83" x2="503.46" y2="206.83"/><line id="Line_238" data-name="Line 238" class="cls-87" x1="106.3" y1="217.39" x2="112.2" y2="217.39"/><line id="Line_239" data-name="Line 239" class="cls-87" x1="164.75" y1="216.51" x2="172.14" y2="216.51"/><line id="Line_240" data-name="Line 240" class="cls-88" x1="155.94" y1="228.26" x2="161.01" y2="228.26"/><line id="Line_241" data-name="Line 241" class="cls-88" x1="193.73" y1="228.26" x2="198.8" y2="228.26"/><line id="Line_242" data-name="Line 242" class="cls-88" x1="293.31" y1="228.26" x2="298.38" y2="228.26"/><line id="Line_243" data-name="Line 243" class="cls-87" x1="338.7" y1="215.71" x2="357.47" y2="215.71"/><path id="Path_149" data-name="Path 149" class="cls-89" d="M470.91,25l-1.17-.3c-.84-.19-1.26-.5-1.26-.95a.82.82,0,0,1,.45-.7,2,2,0,0,1,1-.29,2.44,2.44,0,0,1,1.12.28,1.63,1.63,0,0,1,.72.77l1.3-.54A2.69,2.69,0,0,0,471.93,22a4,4,0,0,0-4.08.15,2,2,0,0,0-.87,1.71c0,1.08.76,1.82,2.27,2.2l1.34.33c.76.23,1.14.6,1.14,1.1a.82.82,0,0,1-.47.71,2,2,0,0,1-1.16.3,1.9,1.9,0,0,1-1.2-.39,2.41,2.41,0,0,1-.84-1.08l-1.3.55A3.37,3.37,0,0,0,468,29.17a3.87,3.87,0,0,0,4.31-.08,2.11,2.11,0,0,0,.89-1.72c0-1.17-.77-1.95-2.32-2.33" transform="translate(0 0)"/><path id="Path_150" data-name="Path 150" class="cls-89" d="M478.54,21.49a3.86,3.86,0,0,0-2.88,1.18,4.48,4.48,0,0,0,0,5.94,3.86,3.86,0,0,0,2.88,1.18,3.8,3.8,0,0,0,2.86-1.18,4.05,4.05,0,0,0,1.14-3,4.05,4.05,0,0,0-1.14-3,3.8,3.8,0,0,0-2.86-1.18" transform="translate(0 0)"/><path id="Path_151" data-name="Path 151" class="cls-89" d="M493.13,21.49A3.07,3.07,0,0,0,490.44,23a2.36,2.36,0,0,0-.95-1.1,2.85,2.85,0,0,0-2.88,0,2.62,2.62,0,0,0-1,.95h-.06V21.74h-1.4v7.79h1.46v-4.3a2.64,2.64,0,0,1,.57-1.69,1.73,1.73,0,0,1,1.42-.71,1.62,1.62,0,0,1,1.33.48,2.47,2.47,0,0,1,.4,1.58v4.64h1.46v-4.3a2.59,2.59,0,0,1,.58-1.69,1.71,1.71,0,0,1,1.41-.71,1.63,1.63,0,0,1,1.34.48,2.6,2.6,0,0,1,.4,1.58v4.64H496V24.67a3.47,3.47,0,0,0-.73-2.35,2.64,2.64,0,0,0-2.08-.83" transform="translate(0 0)"/><path id="Path_152" data-name="Path 152" class="cls-89" d="M502,21.49a2.86,2.86,0,0,0-1.43.38,2.57,2.57,0,0,0-1,1h-.06V21.75h-1.4v7.78h1.46v-4.3a2.57,2.57,0,0,1,.59-1.7,1.85,1.85,0,0,1,1.46-.71,1.73,1.73,0,0,1,1.92,1.49,1.48,1.48,0,0,1,0,.42v4.8H505V24.64a3.25,3.25,0,0,0-.77-2.33,2.89,2.89,0,0,0-2.2-.82" transform="translate(0 0)"/><path id="Path_153" data-name="Path 153" class="cls-89" d="M507.92,18a1,1,0,0,0-1,1,1,1,0,1,0,2.06,0,1,1,0,0,0-.31-.72,1,1,0,0,0-.73-.3" transform="translate(0 0)"/><rect id="Rectangle_75" data-name="Rectangle 75" class="cls-89" x="507.19" y="21.75" width="1.46" height="7.79"/><rect id="Rectangle_76" data-name="Rectangle 76" class="cls-89" x="510.96" y="18.15" width="1.46" height="11.38"/><path id="Path_154" data-name="Path 154" class="cls-89" d="M518.08,21.49a3.86,3.86,0,0,0-2.88,1.18,4.47,4.47,0,0,0,0,5.94,4.08,4.08,0,0,0,5.74,0,4.05,4.05,0,0,0,1.14-3,4,4,0,0,0-1.14-3,3.83,3.83,0,0,0-2.86-1.18m1.81,6.18a2.51,2.51,0,0,1-3.54.09l-.08-.09a3.16,3.16,0,0,1,0-4.05,2.46,2.46,0,0,1,3.48-.14l.14.14a3.18,3.18,0,0,1,0,4.05" transform="translate(0 0)"/><path id="Path_155" data-name="Path 155" class="cls-89" d="M529.79,21.74v1.08h-.07a2.92,2.92,0,0,0-1.12-1,3.41,3.41,0,0,0-1.53-.36,3.46,3.46,0,0,0-2.63,1.21,4.56,4.56,0,0,0,0,5.89,3.44,3.44,0,0,0,2.63,1.19,3.27,3.27,0,0,0,1.53-.35,2.94,2.94,0,0,0,1.12-1h.06v.75a2.75,2.75,0,0,1-.66,2,2.44,2.44,0,0,1-1.86.71,2.3,2.3,0,0,1-1.37-.41,2.21,2.21,0,0,1-.83-1.1l-1.38.57a3.06,3.06,0,0,0,.51.92,3.65,3.65,0,0,0,.8.72,4,4,0,0,0,2.26.63,3.83,3.83,0,0,0,2.86-1.08,3.94,3.94,0,0,0,1.07-2.94V21.74Zm-.72,5.93a2.23,2.23,0,0,1-1.76.78,2.27,2.27,0,0,1-1.76-.79,3.19,3.19,0,0,1,0-4,2.28,2.28,0,0,1,1.76-.8,2.24,2.24,0,0,1,1.76.8,3.21,3.21,0,0,1,0,4.05" transform="translate(0 0)"/></g></g></g><g id="somnilog.be_" data-name="somnilog.be " class="cls-4"><text class="cls-90" transform="translate(469.07 734.49)">s</text><text class="cls-91" transform="translate(472.61 734.49)">o</text><text class="cls-92" transform="translate(476.43 734.49)">mni</text><text class="cls-93" transform="translate(487.71 734.49)">l</text><text class="cls-92" transform="translate(489.23 734.49)"><tspan xml:space="preserve">og.be  </tspan></text></g><g id="Group_71" data-name="Group 71"><g class="cls-2"><g id="Group_70" data-name="Group 70"><line id="Line_244" data-name="Line 244" class="cls-94" y1="92.67" x2="546.4" y2="92.67"/><line id="Line_245" data-name="Line 245" class="cls-94" x1="546.4" y1="117.84" y2="117.84"/><line id="Line_246" data-name="Line 246" class="cls-94" x1="546.4" y1="710.71" y2="710.71"/><line id="Line_247" data-name="Line 247" class="cls-95" x1="469.07" y1="742.53" x2="518.41" y2="742.53"/></g></g></g></g></g></g></svg>